# Blender v3.2.0 OBJ File: 'MOBIL.blend'
# www.blender.org
mtllib bumper_handle_wrecked_car.mtl
o Cube.225_Cube.004
v -13.183819 -15.187407 3.552302
v -13.183819 -15.353797 3.552302
v -13.183819 -15.187407 2.308015
v -13.183819 -15.353797 2.308015
v -13.097477 -15.187407 3.552302
v -13.097477 -15.353797 3.552302
v -13.097477 -15.353797 2.308015
v -13.097477 -15.187407 2.308015
v -13.183819 -15.353797 3.044323
v -13.183819 -15.353797 2.849725
v -13.183819 -15.187407 2.849725
v -13.183819 -15.187407 3.044323
v -13.097477 -15.353797 3.044323
v -13.097477 -15.353797 2.849725
v -13.097477 -15.187407 2.849725
v -13.097477 -15.187407 3.044323
v -17.160892 -15.345911 3.552302
v -17.160892 -15.177236 3.552302
v -17.160892 -15.345911 2.308015
v -17.160892 -15.177236 2.308015
v -17.243298 -15.345911 3.552302
v -17.243298 -15.345911 2.308015
v -17.243298 -15.177236 3.552302
v -17.243298 -15.177236 2.308015
v -15.390049 -14.878500 3.586669
v -15.676334 -14.878500 3.586669
v -15.390049 -14.817779 3.586669
v -15.676334 -14.817779 3.586669
v -13.183819 -15.187407 1.063728
v -13.183819 -15.353797 1.063728
v -13.097477 -15.187407 1.063728
v -13.097477 -15.353797 1.063728
v -13.183819 -15.353797 1.571706
v -13.183819 -15.353797 1.766305
v -13.183819 -15.187407 1.766305
v -13.183819 -15.187407 1.571706
v -13.097477 -15.353797 1.571706
v -13.097477 -15.353797 1.766305
v -13.097477 -15.187407 1.766305
v -13.097477 -15.187407 1.571706
v -17.160892 -15.345911 1.063728
v -17.160892 -15.177236 1.063728
v -17.243298 -15.345911 1.063728
v -17.243298 -15.177236 1.063728
v -15.390049 -14.878500 1.029361
v -15.676334 -14.878500 1.029361
v -15.390049 -14.817779 1.029361
v -15.676334 -14.817779 1.029361
vt 0.375000 0.750000
vt 0.625000 0.708333
vt 0.375000 0.708333
vt 0.625000 0.625000
vt 0.375000 0.625000
vt 0.375000 0.625000
vt 0.375000 0.666667
vt 0.625000 0.666667
vt 0.375000 0.125000
vt 0.625000 0.000000
vt 0.375000 0.000000
vt 0.625000 0.125000
vt 0.625000 0.000000
vt 0.375000 0.125000
vt 0.625000 0.125000
vt 0.375000 0.000000
vt 0.625000 0.708333
vt 0.375000 0.750000
vt 0.375000 0.708333
vt 0.375000 0.666667
vt 0.625000 0.666667
vt 0.625000 0.000000
vt 0.375000 0.000000
vt 0.625000 0.000000
vt 0.375000 0.000000
vt 0.625000 0.750000
vt 0.625000 0.625000
vt 0.625000 0.750000
vt 0.625000 0.708333
vt 0.375000 0.750000
vt 0.375000 0.708333
vt 0.375000 0.666667
vt 0.625000 0.750000
vt 0.625000 0.832302
vt 0.375000 0.922265
vt 0.375000 0.832302
vt 0.375000 0.750000
vt 0.625000 0.708333
vt 0.375000 0.708333
vt 0.375000 0.666667
vt 0.625000 0.750000
vt 0.375000 0.922265
vt 0.625000 0.832302
vt 0.375000 0.832302
vt 0.625000 0.666667
vt 0.625000 0.922265
vt 0.625000 0.666667
vt 0.625000 0.922265
vn 1.0000 0.0000 0.0000
vn 0.0000 0.0000 1.0000
vn 0.0000 1.0000 0.0000
vn 0.0000 -1.0000 0.0000
vn 0.0000 0.0000 -1.0000
vn -1.0000 0.0000 0.0000
usemtl Material.011
s off
f 1/1/1 9/2/1 12/3/1
f 4/4/2 8/5/2 3/6/2
f 11/7/1 4/4/1 3/6/1
f 12/3/1 10/8/1 11/7/1
f 19/9/1 18/10/1 17/11/1
f 20/12/3 23/13/3 18/10/3
f 17/11/4 22/14/4 19/9/4
f 19/9/5 24/15/5 20/12/5
f 18/10/2 21/16/2 17/11/2
f 33/17/1 29/18/1 36/19/1
f 4/4/1 35/20/1 3/6/1
f 34/21/1 36/19/1 35/20/1
f 42/22/1 19/9/1 41/23/1
f 44/24/3 20/12/3 42/22/3
f 22/14/4 41/23/4 19/9/4
f 43/25/5 42/22/5 41/23/5
f 1/1/1 2/26/1 9/2/1
f 4/4/2 7/27/2 8/5/2
f 11/7/1 10/8/1 4/4/1
f 12/3/1 9/2/1 10/8/1
f 19/9/1 20/12/1 18/10/1
f 20/12/3 24/15/3 23/13/3
f 17/11/4 21/16/4 22/14/4
f 19/9/5 22/14/5 24/15/5
f 18/10/2 23/13/2 21/16/2
f 33/17/1 30/28/1 29/18/1
f 4/4/1 34/21/1 35/20/1
f 34/21/1 33/17/1 36/19/1
f 42/22/1 20/12/1 19/9/1
f 44/24/3 24/15/3 20/12/3
f 22/14/4 43/25/4 41/23/4
f 43/25/5 44/24/5 42/22/5
usemtl Material.016
f 13/29/6 5/30/6 16/31/6
f 3/6/4 15/32/4 11/7/4
f 1/1/5 6/33/5 2/26/5
f 2/26/3 13/29/3 9/2/3
f 10/8/3 7/27/3 4/4/3
f 12/3/4 5/30/4 1/1/4
f 7/27/6 15/32/6 8/5/6
f 23/13/6 22/14/6 21/16/6
f 27/34/2 26/35/2 25/36/2
f 31/37/6 37/38/6 40/39/6
f 39/40/4 3/6/4 35/20/4
f 32/41/2 29/18/2 30/28/2
f 37/38/3 30/28/3 33/17/3
f 7/27/3 34/21/3 4/4/3
f 31/37/4 36/19/4 29/18/4
f 39/40/6 7/27/6 8/5/6
f 22/14/6 44/24/6 43/25/6
f 46/42/5 47/43/5 45/44/5
f 13/29/6 6/33/6 5/30/6
f 3/6/4 8/5/4 15/32/4
f 1/1/5 5/30/5 6/33/5
f 2/26/3 6/33/3 13/29/3
f 10/8/3 14/45/3 7/27/3
f 12/3/4 16/31/4 5/30/4
f 7/27/6 14/45/6 15/32/6
f 23/13/6 24/15/6 22/14/6
f 27/34/2 28/46/2 26/35/2
f 31/37/6 32/41/6 37/38/6
f 39/40/4 8/5/4 3/6/4
f 32/41/2 31/37/2 29/18/2
f 37/38/3 32/41/3 30/28/3
f 7/27/3 38/47/3 34/21/3
f 31/37/4 40/39/4 36/19/4
f 39/40/6 38/47/6 7/27/6
f 22/14/6 24/15/6 44/24/6
f 46/42/5 48/48/5 47/43/5
o Cube.224_Cube.005
v -17.436020 -15.415697 3.552302
v -17.436020 -15.187407 3.552302
v -17.436020 -15.353797 3.552302
v -17.436020 -15.187407 2.308015
v -17.436020 -15.353797 2.308015
v -17.349678 -15.187407 3.552302
v -17.349678 -15.353797 3.552302
v -17.349678 -15.353797 2.308015
v -17.349678 -15.187407 2.308015
v -17.436020 -15.353797 3.044323
v -17.436020 -15.353797 2.849725
v -17.436020 -15.187407 2.849725
v -17.436020 -15.187407 3.044323
v -17.349678 -15.353797 3.044323
v -17.349678 -15.353797 2.849725
v -17.349678 -15.187407 2.849725
v -17.349678 -15.187407 3.044323
v -21.413094 -15.345911 3.552302
v -21.413094 -15.177236 3.552302
v -21.413094 -15.345911 2.308015
v -21.413094 -15.177236 2.308015
v -21.495499 -15.345911 3.552302
v -21.495499 -15.345911 2.308015
v -21.495499 -15.177236 3.552302
v -21.495499 -15.177236 2.308015
v -19.642250 -14.878500 3.552302
v -19.642250 -14.817779 3.552302
v -19.928535 -14.817779 3.552302
v -19.928535 -14.878500 3.552302
v -19.642250 -14.878500 3.586669
v -19.928535 -14.878500 3.586669
v -19.642250 -14.817779 3.586669
v -19.928535 -14.817779 3.586669
v -17.436020 -15.415697 1.063728
v -17.436020 -15.187407 1.063728
v -17.436020 -15.353797 1.063728
v -17.349678 -15.187407 1.063728
v -17.349678 -15.353797 1.063728
v -17.436020 -15.353797 1.571706
v -17.436020 -15.353797 1.766305
v -17.436020 -15.187407 1.766305
v -17.436020 -15.187407 1.571706
v -17.349678 -15.353797 1.571706
v -17.349678 -15.353797 1.766305
v -17.349678 -15.187407 1.766305
v -17.349678 -15.187407 1.571706
v -21.413094 -15.345911 1.063728
v -21.413094 -15.177236 1.063728
v -21.495499 -15.345911 1.063728
v -21.495499 -15.177236 1.063728
v -19.642250 -14.878500 1.063728
v -19.642250 -14.817779 1.063728
v -19.928535 -14.817779 1.063728
v -19.928535 -14.878500 1.063728
v -19.642250 -14.878500 1.029361
v -19.928535 -14.878500 1.029361
v -19.642250 -14.817779 1.029361
v -19.928535 -14.817779 1.029361
vt 0.375000 0.750000
vt 0.625000 0.708333
vt 0.375000 0.708333
vt 0.625000 0.625000
vt 0.375000 0.625000
vt 0.375000 0.625000
vt 0.375000 0.666667
vt 0.625000 0.666667
vt 0.375000 0.125000
vt 0.625000 0.000000
vt 0.375000 0.000000
vt 0.625000 0.125000
vt 0.625000 0.000000
vt 0.375000 0.125000
vt 0.625000 0.125000
vt 0.375000 0.000000
vt 0.375000 0.922265
vt 0.625000 0.832302
vt 0.375000 0.832302
vt 0.625000 0.708333
vt 0.375000 0.750000
vt 0.375000 0.708333
vt 0.375000 0.666667
vt 0.625000 0.666667
vt 0.625000 0.000000
vt 0.375000 0.000000
vt 0.625000 0.000000
vt 0.375000 0.000000
vt 0.625000 0.832302
vt 0.375000 0.922265
vt 0.375000 0.832302
vt 0.625000 0.750000
vt 0.625000 0.625000
vt 0.625000 0.922265
vt 0.625000 0.750000
vt 0.625000 0.922265
vt 0.625000 0.708333
vt 0.375000 0.750000
vt 0.375000 0.708333
vt 0.375000 0.666667
vt 0.625000 0.750000
vt 0.625000 0.832302
vt 0.375000 0.922265
vt 0.375000 0.832302
vt 0.625000 0.922265
vt 0.375000 0.750000
vt 0.625000 0.708333
vt 0.375000 0.708333
vt 0.375000 0.666667
vt 0.625000 0.750000
vt 0.375000 0.922265
vt 0.625000 0.832302
vt 0.375000 0.832302
vt 0.625000 0.922265
vt 0.625000 0.666667
vt 0.625000 0.666667
vn 1.0000 0.0000 0.0000
vn 0.0000 0.0000 1.0000
vn 0.0000 1.0000 0.0000
vn 0.0000 -1.0000 0.0000
vn 0.0000 0.0000 -1.0000
vn -1.0000 0.0000 0.0000
usemtl Material.011
s off
f 50/49/7 58/50/7 61/51/7
f 53/52/8 57/53/8 52/54/8
f 60/55/7 53/52/7 52/54/7
f 61/51/7 59/56/7 60/55/7
f 68/57/7 67/58/7 66/59/7
f 69/60/9 72/61/9 67/58/9
f 66/59/10 71/62/10 68/57/10
f 68/57/11 73/63/11 69/60/11
f 67/58/8 70/64/8 66/59/8
f 77/65/11 75/66/11 74/67/11
f 87/68/7 83/69/7 90/70/7
f 53/52/7 89/71/7 52/54/7
f 88/72/7 90/70/7 89/71/7
f 96/73/7 68/57/7 95/74/7
f 98/75/9 69/60/9 96/73/9
f 71/62/10 95/74/10 68/57/10
f 97/76/11 96/73/11 95/74/11
f 100/77/8 102/78/8 99/79/8
f 50/49/7 51/80/7 58/50/7
f 53/52/8 56/81/8 57/53/8
f 60/55/7 59/56/7 53/52/7
f 61/51/7 58/50/7 59/56/7
f 68/57/7 69/60/7 67/58/7
f 69/60/9 73/63/9 72/61/9
f 66/59/10 70/64/10 71/62/10
f 68/57/11 71/62/11 73/63/11
f 67/58/8 72/61/8 70/64/8
f 77/65/11 76/82/11 75/66/11
f 87/68/7 84/83/7 83/69/7
f 53/52/7 88/72/7 89/71/7
f 88/72/7 87/68/7 90/70/7
f 96/73/7 69/60/7 68/57/7
f 98/75/9 73/63/9 69/60/9
f 71/62/10 97/76/10 95/74/10
f 97/76/11 98/75/11 96/73/11
f 100/77/8 101/84/8 102/78/8
usemtl Material.016
f 62/85/12 54/86/12 65/87/12
f 52/54/10 64/88/10 60/55/10
f 50/49/11 55/89/11 51/80/11
f 51/80/9 62/85/9 58/50/9
f 59/56/9 56/81/9 53/52/9
f 61/51/10 54/86/10 50/49/10
f 56/81/12 64/88/12 57/53/12
f 72/61/12 71/62/12 70/64/12
f 80/90/8 79/91/8 78/92/8
f 76/82/9 80/90/9 75/66/9
f 74/67/10 79/91/10 77/65/10
f 77/65/12 81/93/12 76/82/12
f 75/66/7 78/92/7 74/67/7
f 85/94/12 91/95/12 94/96/12
f 93/97/10 52/54/10 89/71/10
f 86/98/8 83/69/8 84/83/8
f 91/95/9 84/83/9 87/68/9
f 56/81/9 88/72/9 53/52/9
f 85/94/10 90/70/10 83/69/10
f 93/97/12 56/81/12 57/53/12
f 71/62/12 98/75/12 97/76/12
f 104/99/11 105/100/11 103/101/11
f 105/100/9 101/84/9 100/77/9
f 104/99/10 99/79/10 102/78/10
f 106/102/12 102/78/12 101/84/12
f 103/101/7 100/77/7 99/79/7
f 62/85/12 55/89/12 54/86/12
f 52/54/10 57/53/10 64/88/10
f 50/49/11 54/86/11 55/89/11
f 51/80/9 55/89/9 62/85/9
f 59/56/9 63/103/9 56/81/9
f 61/51/10 65/87/10 54/86/10
f 56/81/12 63/103/12 64/88/12
f 72/61/12 73/63/12 71/62/12
f 80/90/8 81/93/8 79/91/8
f 76/82/9 81/93/9 80/90/9
f 74/67/10 78/92/10 79/91/10
f 77/65/12 79/91/12 81/93/12
f 75/66/7 80/90/7 78/92/7
f 85/94/12 86/98/12 91/95/12
f 93/97/10 57/53/10 52/54/10
f 86/98/8 85/94/8 83/69/8
f 91/95/9 86/98/9 84/83/9
f 56/81/9 92/104/9 88/72/9
f 85/94/10 94/96/10 90/70/10
f 93/97/12 92/104/12 56/81/12
f 71/62/12 73/63/12 98/75/12
f 104/99/11 106/102/11 105/100/11
f 105/100/9 106/102/9 101/84/9
f 104/99/10 103/101/10 99/79/10
f 106/102/12 104/99/12 102/78/12
f 103/101/7 105/100/7 100/77/7
