# Blender v3.2.0 OBJ File: 'MOBIL.blend'
# www.blender.org
mtllib car_lamp.mtl
o Cube.225_Cube.004
v -13.183819 -15.353797 3.044323
v -13.183819 -15.353797 2.849725
v -13.183819 -15.187407 2.849725
v -13.183819 -15.187407 3.044323
v -13.097477 -15.353797 3.044323
v -13.097477 -15.353797 2.849725
v -13.097477 -15.187407 2.849725
v -13.097477 -15.187407 3.044323
v -13.183819 -15.386631 3.044323
v -13.183819 -15.386631 2.849725
v -13.183819 -15.154573 2.849725
v -13.183819 -15.154573 3.044323
v -13.074253 -15.377014 3.044323
v -13.074253 -15.377014 2.849725
v -13.074253 -15.164190 2.849725
v -13.074253 -15.164190 3.044323
v -13.183819 -15.386631 3.044323
v -13.183819 -15.386631 2.849725
v -13.183819 -15.154573 2.849725
v -13.183819 -15.154573 3.044323
v -13.074253 -15.377014 3.044323
v -13.074253 -15.377014 2.849725
v -13.074253 -15.164190 2.849725
v -13.074253 -15.164190 3.044323
v -13.074253 -15.377014 3.044323
v -13.074253 -15.377014 2.849725
v -13.074253 -15.164190 2.849725
v -13.074253 -15.164190 3.044323
v -13.056705 -15.377014 3.044323
v -13.056705 -15.377014 2.849725
v -13.056705 -15.164190 2.849725
v -13.056705 -15.164190 3.044323
v -13.183743 -15.153761 2.849725
v -13.183743 -15.153761 3.044323
v -13.074184 -15.163378 2.849725
v -13.074184 -15.163378 3.044323
v -13.183773 -15.387170 3.044323
v -13.183773 -15.387170 2.849725
v -13.074207 -15.377553 3.044323
v -13.074207 -15.377553 2.849725
v -13.183819 -15.353797 1.571706
v -13.183819 -15.353797 1.766305
v -13.183819 -15.187407 1.766305
v -13.183819 -15.187407 1.571706
v -13.097477 -15.353797 1.571706
v -13.097477 -15.353797 1.766305
v -13.097477 -15.187407 1.766305
v -13.097477 -15.187407 1.571706
v -13.183819 -15.386631 1.571706
v -13.183819 -15.386631 1.766305
v -13.183819 -15.154573 1.766305
v -13.183819 -15.154573 1.571706
v -13.074253 -15.377014 1.571706
v -13.074253 -15.377014 1.766305
v -13.074253 -15.164190 1.766305
v -13.074253 -15.164190 1.571706
v -13.183819 -15.386631 1.571706
v -13.183819 -15.386631 1.766305
v -13.183819 -15.154573 1.766305
v -13.183819 -15.154573 1.571706
v -13.074253 -15.377014 1.571706
v -13.074253 -15.377014 1.766305
v -13.074253 -15.164190 1.766305
v -13.074253 -15.164190 1.571706
v -13.074253 -15.377014 1.571706
v -13.074253 -15.377014 1.766305
v -13.074253 -15.164190 1.766305
v -13.074253 -15.164190 1.571706
v -13.056705 -15.377014 1.571706
v -13.056705 -15.377014 1.766305
v -13.056705 -15.164190 1.766305
v -13.056705 -15.164190 1.571706
v -13.183743 -15.153761 1.766305
v -13.183743 -15.153761 1.571706
v -13.074184 -15.163378 1.766305
v -13.074184 -15.163378 1.571706
v -13.183773 -15.387170 1.571706
v -13.183773 -15.387170 1.766305
v -13.074207 -15.377553 1.571706
v -13.074207 -15.377553 1.766305
vt 0.375000 0.666667
vt 0.375000 0.708333
vt 0.375000 0.708333
vt 0.625000 0.666667
vt 0.625000 0.708333
vt 0.625000 0.666667
vt 0.625000 0.666667
vt 0.375000 0.666667
vt 0.375000 0.708333
vt 0.375000 0.666667
vt 0.625000 0.708333
vt 0.000000 0.000000
vt 0.000000 0.000000
vt 0.000000 0.000000
vt 0.000000 0.000000
vt 0.000000 0.000000
vt 0.000000 0.000000
vt 0.000000 0.000000
vt 0.000000 0.000000
vt 0.000000 0.000000
vt 0.000000 0.000000
vt 0.000000 0.000000
vt 0.000000 0.000000
vt 0.000000 0.000000
vt 0.000000 0.000000
vt 0.375000 0.708333
vt 0.375000 0.666667
vt 0.375000 0.708333
vt 0.625000 0.666667
vt 0.625000 0.666667
vt 0.625000 0.708333
vt 0.625000 0.666667
vt 0.375000 0.708333
vt 0.375000 0.666667
vt 0.375000 0.666667
vt 0.625000 0.708333
vt 0.000000 0.000000
vt 0.000000 0.000000
vt 0.000000 0.000000
vt 0.000000 0.000000
vt 0.000000 0.000000
vt 0.000000 0.000000
vt 0.000000 0.000000
vt 0.000000 0.000000
vt 0.000000 0.000000
vt 0.000000 0.000000
vt 0.000000 0.000000
vt 0.000000 0.000000
vt 0.625000 0.708333
vt 0.000000 0.000000
vt 0.000000 0.000000
vt 0.625000 0.708333
vt 0.000000 0.000000
vt 0.000000 0.000000
vt 0.000000 0.000000
vt 0.000000 0.000000
vt 0.625000 0.708333
vt 0.375000 0.666667
vt 0.625000 0.666667
vt 0.375000 0.708333
vt 0.625000 0.666667
vt 0.375000 0.708333
vt 0.375000 0.666667
vt 0.375000 0.708333
vt 0.625000 0.666667
vt 0.375000 0.666667
vt 0.625000 0.666667
vt 0.375000 0.708333
vt 0.375000 0.666667
vt 0.625000 0.708333
vt 0.625000 0.708333
vt 0.375000 0.666667
vt 0.375000 0.708333
vt 0.375000 0.708333
vt 0.375000 0.666667
vt 0.625000 0.708333
vt 0.625000 0.666667
vt 0.625000 0.666667
vt 0.625000 0.708333
vt 0.625000 0.708333
vt 0.625000 0.708333
vt 0.375000 0.666667
vt 0.625000 0.666667
vt 0.375000 0.708333
vt 0.375000 0.708333
vt 0.625000 0.666667
vt 0.375000 0.666667
vt 0.625000 0.666667
vt 0.375000 0.708333
vt 0.375000 0.666667
vt 0.375000 0.708333
vt 0.625000 0.666667
vt 0.375000 0.666667
vt 0.625000 0.708333
vt 0.625000 0.708333
vt 0.375000 0.708333
vt 0.375000 0.666667
vt 0.375000 0.708333
vt 0.375000 0.666667
vt 0.625000 0.666667
vt 0.625000 0.708333
vt 0.625000 0.666667
vt 0.625000 0.708333
vt 0.625000 0.708333
vn 1.0000 0.0000 0.0000
vn -0.0874 0.9962 0.0000
vn -0.0874 -0.9962 0.0000
vn -1.0000 0.0000 0.0000
vn 0.0000 0.0000 1.0000
vn -0.0000 0.0000 -1.0000
vn 0.9957 -0.0931 0.0000
vn 0.9963 0.0861 0.0000
vn 0.9954 -0.0961 0.0000
vn 0.9967 0.0816 0.0000
vn 0.0000 1.0000 0.0000
vn 0.0000 -1.0000 0.0000
vn -0.9965 0.0841 0.0000
vn -0.9963 -0.0861 0.0000
vn -0.9967 -0.0816 0.0000
usemtl Material.011
s off
f 3/1/1 12/2/1 4/3/1
f 4/3/1 2/4/1 3/1/1
f 9/5/2 14/6/2 10/7/2
f 11/8/3 16/9/3 12/2/3
f 14/6/4 16/9/4 15/10/4
f 1/11/1 10/7/1 2/4/1
f 22/12/5 38/13/5 40/14/5
f 24/15/6 34/16/6 36/17/6
f 23/18/5 33/19/5 19/20/5
f 19/20/7 34/16/7 20/21/7
f 17/22/8 38/13/8 18/23/8
f 21/24/6 37/25/6 17/22/6
f 52/26/1 43/27/1 44/28/1
f 42/29/1 44/28/1 43/27/1
f 54/30/2 49/31/2 50/32/2
f 56/33/3 51/34/3 52/26/3
f 56/33/4 54/30/4 55/35/4
f 50/32/1 41/36/1 42/29/1
f 62/37/6 78/38/6 58/39/6
f 64/40/5 74/41/5 60/42/5
f 73/43/6 63/44/6 59/45/6
f 74/41/9 59/45/9 60/42/9
f 78/38/8 57/46/8 58/39/8
f 77/47/5 61/48/5 57/46/5
f 3/1/1 11/8/1 12/2/1
f 4/3/1 1/11/1 2/4/1
f 9/5/2 13/49/2 14/6/2
f 11/8/3 15/10/3 16/9/3
f 14/6/4 13/49/4 16/9/4
f 1/11/1 9/5/1 10/7/1
f 22/12/5 18/23/5 38/13/5
f 24/15/6 20/21/6 34/16/6
f 23/18/5 35/50/5 33/19/5
f 19/20/7 33/19/7 34/16/7
f 17/22/10 37/25/10 38/13/10
f 21/24/6 39/51/6 37/25/6
f 52/26/1 51/34/1 43/27/1
f 42/29/1 41/36/1 44/28/1
f 54/30/2 53/52/2 49/31/2
f 56/33/3 55/35/3 51/34/3
f 56/33/4 53/52/4 54/30/4
f 50/32/1 49/31/1 41/36/1
f 62/37/6 80/53/6 78/38/6
f 64/40/5 76/54/5 74/41/5
f 73/43/6 75/55/6 63/44/6
f 74/41/7 73/43/7 59/45/7
f 78/38/8 77/47/8 57/46/8
f 77/47/5 79/56/5 61/48/5
usemtl Material.017
f 5/57/6 9/5/6 1/11/6
f 7/58/5 11/8/5 3/1/5
f 6/59/5 15/10/5 7/58/5
f 8/60/6 12/2/6 16/9/6
f 6/59/5 10/7/5 14/6/5
f 5/57/6 16/9/6 13/49/6
f 22/61/4 24/62/4 23/63/4
f 28/64/1 26/65/1 27/66/1
f 30/67/4 32/68/4 31/69/4
f 26/65/5 31/69/5 27/66/5
f 25/70/11 30/67/11 26/65/11
f 28/64/6 29/71/6 25/70/6
f 27/66/12 32/68/12 28/64/12
f 33/72/3 36/73/3 34/74/3
f 24/62/13 35/75/13 23/63/13
f 37/76/2 40/77/2 38/78/2
f 22/61/14 39/79/14 21/80/14
f 49/31/5 45/81/5 41/36/5
f 51/34/6 47/82/6 43/27/6
f 55/35/6 46/83/6 47/82/6
f 48/84/5 52/26/5 44/28/5
f 46/83/6 50/32/6 42/29/6
f 45/81/5 56/33/5 48/84/5
f 64/85/4 62/86/4 63/87/4
f 66/88/1 68/89/1 67/90/1
f 72/91/4 70/92/4 71/93/4
f 71/93/6 66/88/6 67/90/6
f 70/92/11 65/94/11 66/88/11
f 69/95/5 68/89/5 65/94/5
f 72/91/12 67/90/12 68/89/12
f 76/96/3 73/97/3 74/98/3
f 75/99/13 64/85/13 63/87/13
f 80/100/2 77/101/2 78/102/2
f 79/103/15 62/86/15 61/104/15
f 5/57/6 13/49/6 9/5/6
f 7/58/5 15/10/5 11/8/5
f 6/59/5 14/6/5 15/10/5
f 8/60/6 4/3/6 12/2/6
f 6/59/5 2/4/5 10/7/5
f 5/57/6 8/60/6 16/9/6
f 22/61/4 21/80/4 24/62/4
f 28/64/1 25/70/1 26/65/1
f 30/67/4 29/71/4 32/68/4
f 26/65/5 30/67/5 31/69/5
f 25/70/11 29/71/11 30/67/11
f 28/64/6 32/68/6 29/71/6
f 27/66/12 31/69/12 32/68/12
f 33/72/3 35/75/3 36/73/3
f 24/62/13 36/73/13 35/75/13
f 37/76/2 39/79/2 40/77/2
f 22/61/14 40/77/14 39/79/14
f 49/31/5 53/52/5 45/81/5
f 51/34/6 55/35/6 47/82/6
f 55/35/6 54/30/6 46/83/6
f 48/84/5 56/33/5 52/26/5
f 46/83/6 54/30/6 50/32/6
f 45/81/5 53/52/5 56/33/5
f 64/85/4 61/104/4 62/86/4
f 66/88/1 65/94/1 68/89/1
f 72/91/4 69/95/4 70/92/4
f 71/93/6 70/92/6 66/88/6
f 70/92/11 69/95/11 65/94/11
f 69/95/5 72/91/5 68/89/5
f 72/91/12 71/93/12 67/90/12
f 76/96/3 75/99/3 73/97/3
f 75/99/13 76/96/13 64/85/13
f 80/100/2 79/103/2 77/101/2
f 79/103/14 80/100/14 62/86/14
o Cube.224_Cube.005
v -17.436020 -15.353797 3.044323
v -17.436020 -15.353797 2.849725
v -17.436020 -15.187407 2.849725
v -17.436020 -15.187407 3.044323
v -17.349678 -15.353797 3.044323
v -17.349678 -15.353797 2.849725
v -17.349678 -15.187407 2.849725
v -17.349678 -15.187407 3.044323
v -17.436020 -15.386631 3.044323
v -17.436020 -15.386631 2.849725
v -17.436020 -15.154573 2.849725
v -17.436020 -15.154573 3.044323
v -17.326454 -15.377014 3.044323
v -17.326454 -15.377014 2.849725
v -17.326454 -15.164190 2.849725
v -17.326454 -15.164190 3.044323
v -17.436020 -15.386631 3.044323
v -17.436020 -15.386631 2.849725
v -17.436020 -15.154573 2.849725
v -17.436020 -15.154573 3.044323
v -17.326454 -15.377014 3.044323
v -17.326454 -15.377014 2.849725
v -17.326454 -15.164190 2.849725
v -17.326454 -15.164190 3.044323
v -17.326454 -15.377014 3.044323
v -17.326454 -15.377014 2.849725
v -17.326454 -15.164190 2.849725
v -17.326454 -15.164190 3.044323
v -17.308907 -15.377014 3.044323
v -17.308907 -15.377014 2.849725
v -17.308907 -15.164190 2.849725
v -17.308907 -15.164190 3.044323
v -17.435944 -15.153761 2.849725
v -17.435944 -15.153761 3.044323
v -17.326385 -15.163378 2.849725
v -17.326385 -15.163378 3.044323
v -17.435974 -15.387170 3.044323
v -17.435974 -15.387170 2.849725
v -17.326408 -15.377553 3.044323
v -17.326408 -15.377553 2.849725
v -17.436020 -15.353797 1.571706
v -17.436020 -15.353797 1.766305
v -17.436020 -15.187407 1.766305
v -17.436020 -15.187407 1.571706
v -17.349678 -15.353797 1.571706
v -17.349678 -15.353797 1.766305
v -17.349678 -15.187407 1.766305
v -17.349678 -15.187407 1.571706
v -17.436020 -15.386631 1.571706
v -17.436020 -15.386631 1.766305
v -17.436020 -15.154573 1.766305
v -17.436020 -15.154573 1.571706
v -17.326454 -15.377014 1.571706
v -17.326454 -15.377014 1.766305
v -17.326454 -15.164190 1.766305
v -17.326454 -15.164190 1.571706
v -17.436020 -15.386631 1.571706
v -17.436020 -15.386631 1.766305
v -17.436020 -15.154573 1.766305
v -17.436020 -15.154573 1.571706
v -17.326454 -15.377014 1.571706
v -17.326454 -15.377014 1.766305
v -17.326454 -15.164190 1.766305
v -17.326454 -15.164190 1.571706
v -17.326454 -15.377014 1.571706
v -17.326454 -15.377014 1.766305
v -17.326454 -15.164190 1.766305
v -17.326454 -15.164190 1.571706
v -17.308907 -15.377014 1.571706
v -17.308907 -15.377014 1.766305
v -17.308907 -15.164190 1.766305
v -17.308907 -15.164190 1.571706
v -17.435944 -15.153761 1.766305
v -17.435944 -15.153761 1.571706
v -17.326385 -15.163378 1.766305
v -17.326385 -15.163378 1.571706
v -17.435974 -15.387170 1.571706
v -17.435974 -15.387170 1.766305
v -17.326408 -15.377553 1.571706
v -17.326408 -15.377553 1.766305
vt 0.375000 0.666667
vt 0.375000 0.708333
vt 0.375000 0.708333
vt 0.625000 0.666667
vt 0.625000 0.708333
vt 0.625000 0.666667
vt 0.625000 0.666667
vt 0.375000 0.666667
vt 0.375000 0.708333
vt 0.375000 0.666667
vt 0.625000 0.708333
vt 0.000000 0.000000
vt 0.000000 0.000000
vt 0.000000 0.000000
vt 0.000000 0.000000
vt 0.000000 0.000000
vt 0.000000 0.000000
vt 0.000000 0.000000
vt 0.000000 0.000000
vt 0.000000 0.000000
vt 0.000000 0.000000
vt 0.000000 0.000000
vt 0.000000 0.000000
vt 0.000000 0.000000
vt 0.000000 0.000000
vt 0.375000 0.708333
vt 0.375000 0.666667
vt 0.375000 0.708333
vt 0.625000 0.666667
vt 0.625000 0.666667
vt 0.625000 0.708333
vt 0.625000 0.666667
vt 0.375000 0.708333
vt 0.375000 0.666667
vt 0.375000 0.666667
vt 0.625000 0.708333
vt 0.000000 0.000000
vt 0.000000 0.000000
vt 0.000000 0.000000
vt 0.000000 0.000000
vt 0.000000 0.000000
vt 0.000000 0.000000
vt 0.000000 0.000000
vt 0.000000 0.000000
vt 0.000000 0.000000
vt 0.000000 0.000000
vt 0.000000 0.000000
vt 0.000000 0.000000
vt 0.625000 0.708333
vt 0.000000 0.000000
vt 0.000000 0.000000
vt 0.625000 0.708333
vt 0.000000 0.000000
vt 0.000000 0.000000
vt 0.000000 0.000000
vt 0.000000 0.000000
vt 0.625000 0.708333
vt 0.375000 0.666667
vt 0.625000 0.666667
vt 0.375000 0.708333
vt 0.625000 0.666667
vt 0.375000 0.708333
vt 0.375000 0.666667
vt 0.375000 0.708333
vt 0.625000 0.666667
vt 0.375000 0.666667
vt 0.625000 0.666667
vt 0.375000 0.708333
vt 0.375000 0.666667
vt 0.625000 0.708333
vt 0.625000 0.708333
vt 0.375000 0.666667
vt 0.375000 0.708333
vt 0.375000 0.708333
vt 0.375000 0.666667
vt 0.625000 0.708333
vt 0.625000 0.666667
vt 0.625000 0.666667
vt 0.625000 0.708333
vt 0.625000 0.708333
vt 0.625000 0.708333
vt 0.375000 0.666667
vt 0.625000 0.666667
vt 0.375000 0.708333
vt 0.375000 0.708333
vt 0.625000 0.666667
vt 0.375000 0.666667
vt 0.625000 0.666667
vt 0.375000 0.708333
vt 0.375000 0.666667
vt 0.375000 0.708333
vt 0.625000 0.666667
vt 0.375000 0.666667
vt 0.625000 0.708333
vt 0.625000 0.708333
vt 0.375000 0.708333
vt 0.375000 0.666667
vt 0.375000 0.708333
vt 0.375000 0.666667
vt 0.625000 0.666667
vt 0.625000 0.708333
vt 0.625000 0.666667
vt 0.625000 0.708333
vt 0.625000 0.708333
vn 1.0000 0.0000 0.0000
vn -0.0874 0.9962 0.0000
vn -0.0874 -0.9962 0.0000
vn -1.0000 0.0000 0.0000
vn 0.0000 0.0000 1.0000
vn -0.0000 0.0000 -1.0000
vn 0.9957 -0.0931 0.0000
vn 0.9963 0.0861 0.0000
vn 0.9967 0.0816 0.0000
vn 0.0000 1.0000 0.0000
vn 0.0000 -1.0000 0.0000
vn -0.9965 0.0841 0.0000
vn -0.9963 -0.0861 0.0000
vn -0.9962 0.0871 0.0000
usemtl Material.011
s off
f 83/105/16 92/106/16 84/107/16
f 84/107/16 82/108/16 83/105/16
f 89/109/17 94/110/17 90/111/17
f 91/112/18 96/113/18 92/106/18
f 94/110/19 96/113/19 95/114/19
f 81/115/16 90/111/16 82/108/16
f 102/116/20 118/117/20 120/118/20
f 104/119/21 114/120/21 116/121/21
f 103/122/20 113/123/20 99/124/20
f 99/124/22 114/120/22 100/125/22
f 97/126/23 118/117/23 98/127/23
f 101/128/21 117/129/21 97/126/21
f 132/130/16 123/131/16 124/132/16
f 122/133/16 124/132/16 123/131/16
f 134/134/17 129/135/17 130/136/17
f 136/137/18 131/138/18 132/130/18
f 136/137/19 134/134/19 135/139/19
f 130/136/16 121/140/16 122/133/16
f 142/141/21 158/142/21 138/143/21
f 144/144/20 154/145/20 140/146/20
f 153/147/21 143/148/21 139/149/21
f 154/145/22 139/149/22 140/146/22
f 158/142/23 137/150/23 138/143/23
f 157/151/20 141/152/20 137/150/20
f 83/105/16 91/112/16 92/106/16
f 84/107/16 81/115/16 82/108/16
f 89/109/17 93/153/17 94/110/17
f 91/112/18 95/114/18 96/113/18
f 94/110/19 93/153/19 96/113/19
f 81/115/16 89/109/16 90/111/16
f 102/116/20 98/127/20 118/117/20
f 104/119/21 100/125/21 114/120/21
f 103/122/20 115/154/20 113/123/20
f 99/124/22 113/123/22 114/120/22
f 97/126/24 117/129/24 118/117/24
f 101/128/21 119/155/21 117/129/21
f 132/130/16 131/138/16 123/131/16
f 122/133/16 121/140/16 124/132/16
f 134/134/17 133/156/17 129/135/17
f 136/137/18 135/139/18 131/138/18
f 136/137/19 133/156/19 134/134/19
f 130/136/16 129/135/16 121/140/16
f 142/141/21 160/157/21 158/142/21
f 144/144/20 156/158/20 154/145/20
f 153/147/21 155/159/21 143/148/21
f 154/145/22 153/147/22 139/149/22
f 158/142/23 157/151/23 137/150/23
f 157/151/20 159/160/20 141/152/20
usemtl Material.017
f 85/161/21 89/109/21 81/115/21
f 87/162/20 91/112/20 83/105/20
f 86/163/20 95/114/20 87/162/20
f 88/164/21 92/106/21 96/113/21
f 86/163/20 90/111/20 94/110/20
f 85/161/21 96/113/21 93/153/21
f 102/165/19 104/166/19 103/167/19
f 108/168/16 106/169/16 107/170/16
f 110/171/19 112/172/19 111/173/19
f 106/169/20 111/173/20 107/170/20
f 105/174/25 110/171/25 106/169/25
f 108/168/21 109/175/21 105/174/21
f 107/170/26 112/172/26 108/168/26
f 113/176/18 116/177/18 114/178/18
f 104/166/27 115/179/27 103/167/27
f 117/180/17 120/181/17 118/182/17
f 102/165/28 119/183/28 101/184/28
f 129/135/20 125/185/20 121/140/20
f 131/138/21 127/186/21 123/131/21
f 135/139/21 126/187/21 127/186/21
f 128/188/20 132/130/20 124/132/20
f 126/187/21 130/136/21 122/133/21
f 125/185/20 136/137/20 128/188/20
f 144/189/19 142/190/19 143/191/19
f 146/192/16 148/193/16 147/194/16
f 152/195/19 150/196/19 151/197/19
f 151/197/21 146/192/21 147/194/21
f 150/196/25 145/198/25 146/192/25
f 149/199/20 148/193/20 145/198/20
f 152/195/26 147/194/26 148/193/26
f 156/200/18 153/201/18 154/202/18
f 155/203/29 144/189/29 143/191/29
f 160/204/17 157/205/17 158/206/17
f 159/207/28 142/190/28 141/208/28
f 85/161/21 93/153/21 89/109/21
f 87/162/20 95/114/20 91/112/20
f 86/163/20 94/110/20 95/114/20
f 88/164/21 84/107/21 92/106/21
f 86/163/20 82/108/20 90/111/20
f 85/161/21 88/164/21 96/113/21
f 102/165/19 101/184/19 104/166/19
f 108/168/16 105/174/16 106/169/16
f 110/171/19 109/175/19 112/172/19
f 106/169/20 110/171/20 111/173/20
f 105/174/25 109/175/25 110/171/25
f 108/168/21 112/172/21 109/175/21
f 107/170/26 111/173/26 112/172/26
f 113/176/18 115/179/18 116/177/18
f 104/166/27 116/177/27 115/179/27
f 117/180/17 119/183/17 120/181/17
f 102/165/28 120/181/28 119/183/28
f 129/135/20 133/156/20 125/185/20
f 131/138/21 135/139/21 127/186/21
f 135/139/21 134/134/21 126/187/21
f 128/188/20 136/137/20 132/130/20
f 126/187/21 134/134/21 130/136/21
f 125/185/20 133/156/20 136/137/20
f 144/189/19 141/208/19 142/190/19
f 146/192/16 145/198/16 148/193/16
f 152/195/19 149/199/19 150/196/19
f 151/197/21 150/196/21 146/192/21
f 150/196/25 149/199/25 145/198/25
f 149/199/20 152/195/20 148/193/20
f 152/195/26 151/197/26 147/194/26
f 156/200/18 155/203/18 153/201/18
f 155/203/27 156/200/27 144/189/27
f 160/204/17 159/207/17 157/205/17
f 159/207/28 160/204/28 142/190/28
