# Blender v3.2.0 OBJ File: ''
# www.blender.org
mtllib chimney_body.mtl
o Cylinder.011_Cylinder.012
v -5.823468 -4.901654 -20.979706
v -5.823468 -4.481383 -20.979706
v -5.977245 -4.901654 -21.068489
v -5.977245 -4.481383 -21.068489
v -5.977245 -4.901654 -21.246056
v -5.977245 -4.481383 -21.246056
v -5.823468 -4.901654 -21.334839
v -5.823468 -4.481383 -21.334839
v -5.669692 -4.901654 -21.246056
v -5.669692 -4.481383 -21.246056
v -5.669692 -4.901654 -21.068489
v -5.669692 -4.481383 -21.068489
vt 1.000000 1.000000
vt 0.833333 0.500000
vt 1.000000 0.500000
vt 0.833333 1.000000
vt 0.666667 0.500000
vt 0.666667 1.000000
vt 0.500000 0.500000
vt 0.500000 1.000000
vt 0.333333 0.500000
vt 0.042154 0.130000
vt 0.250000 0.010000
vt 0.457846 0.130000
vt 0.333333 1.000000
vt 0.166667 0.500000
vt 0.166667 1.000000
vt -0.000000 0.500000
vt 0.542154 0.130000
vt 0.542154 0.370000
vt 0.957846 0.370000
vt 0.457846 0.370000
vt 0.250000 0.490000
vt 0.042154 0.370000
vt -0.000000 1.000000
vt 0.750000 0.490000
vt 0.957846 0.130000
vt 0.750000 0.010000
vn -0.0000 0.6100 0.7924
vn -0.6862 -0.6100 0.3962
vn 0.0000 -0.6100 0.7924
vn -0.6862 0.6100 0.3962
vn -0.6862 -0.6100 -0.3962
vn -0.6862 0.6100 -0.3962
vn 0.0000 -0.6100 -0.7924
vn 0.0000 0.6100 -0.7924
vn 0.6862 -0.6100 -0.3962
vn 0.6862 0.6100 -0.3962
vn 0.6862 -0.6100 0.3962
vn 0.6862 0.6100 0.3962
usemtl Chimney_4
s 1
f 2/1/1 3/2/2 1/3/3
f 4/4/4 5/5/5 3/2/2
f 6/6/6 7/7/7 5/5/5
f 8/8/8 9/9/9 7/7/7
f 10/10/10 8/11/8 6/12/6
f 10/13/10 11/14/11 9/9/9
f 12/15/12 1/16/3 11/14/11
f 9/17/9 11/18/11 3/19/2
f 2/1/1 4/4/4 3/2/2
f 4/4/4 6/6/6 5/5/5
f 6/6/6 8/8/8 7/7/7
f 8/8/8 10/13/10 9/9/9
f 6/12/6 4/20/4 2/21/1
f 2/21/1 12/22/12 6/12/6
f 12/22/12 10/10/10 6/12/6
f 10/13/10 12/15/12 11/14/11
f 12/15/12 2/23/1 1/16/3
f 11/18/11 1/24/3 3/19/2
f 3/19/2 5/25/5 7/26/7
f 7/26/7 9/17/9 3/19/2
o Cylinder.009_Cylinder.010
v -29.440361 -4.901654 -20.979712
v -29.440361 -4.481383 -20.979712
v -29.594137 -4.901654 -21.068495
v -29.594137 -4.481383 -21.068495
v -29.594137 -4.901654 -21.246061
v -29.594137 -4.481383 -21.246061
v -29.440361 -4.901654 -21.334845
v -29.440361 -4.481383 -21.334845
v -29.286585 -4.901654 -21.246061
v -29.286585 -4.481383 -21.246061
v -29.286585 -4.901654 -21.068495
v -29.286585 -4.481383 -21.068495
vt 1.000000 1.000000
vt 0.833333 0.500000
vt 1.000000 0.500000
vt 0.833333 1.000000
vt 0.666667 0.500000
vt 0.666667 1.000000
vt 0.500000 0.500000
vt 0.500000 1.000000
vt 0.333333 0.500000
vt 0.042154 0.130000
vt 0.250000 0.010000
vt 0.457846 0.130000
vt 0.333333 1.000000
vt 0.166667 0.500000
vt 0.166667 1.000000
vt -0.000000 0.500000
vt 0.542154 0.130000
vt 0.542154 0.370000
vt 0.957846 0.370000
vt 0.457846 0.370000
vt 0.250000 0.490000
vt 0.042154 0.370000
vt -0.000000 1.000000
vt 0.750000 0.490000
vt 0.957846 0.130000
vt 0.750000 0.010000
vn 0.0000 0.6100 0.7924
vn -0.6862 -0.6100 0.3962
vn -0.0000 -0.6100 0.7924
vn -0.6862 0.6100 0.3962
vn -0.6862 -0.6100 -0.3962
vn -0.6862 0.6100 -0.3962
vn -0.0000 -0.6100 -0.7924
vn 0.0000 0.6100 -0.7924
vn 0.6862 -0.6100 -0.3962
vn 0.6862 0.6100 -0.3962
vn 0.6862 -0.6100 0.3962
vn 0.6862 0.6100 0.3962
usemtl Chimney_4
s 1
f 14/27/13 15/28/14 13/29/15
f 16/30/16 17/31/17 15/28/14
f 18/32/18 19/33/19 17/31/17
f 20/34/20 21/35/21 19/33/19
f 22/36/22 20/37/20 18/38/18
f 22/39/22 23/40/23 21/35/21
f 24/41/24 13/42/15 23/40/23
f 21/43/21 23/44/23 15/45/14
f 14/27/13 16/30/16 15/28/14
f 16/30/16 18/32/18 17/31/17
f 18/32/18 20/34/20 19/33/19
f 20/34/20 22/39/22 21/35/21
f 18/38/18 16/46/16 14/47/13
f 14/47/13 24/48/24 18/38/18
f 24/48/24 22/36/22 18/38/18
f 22/39/22 24/41/24 23/40/23
f 24/41/24 14/49/13 13/42/15
f 23/44/23 13/50/15 15/45/14
f 15/45/14 17/51/17 19/52/19
f 19/52/19 21/43/21 15/45/14
o Cylinder.007_Cylinder.008
v -53.263138 -4.901654 -20.979715
v -53.263138 -4.481383 -20.979715
v -53.416916 -4.901654 -21.068499
v -53.416916 -4.481383 -21.068499
v -53.416916 -4.901654 -21.246065
v -53.416916 -4.481383 -21.246065
v -53.263138 -4.901654 -21.334848
v -53.263138 -4.481383 -21.334848
v -53.109360 -4.901654 -21.246065
v -53.109360 -4.481383 -21.246065
v -53.109360 -4.901654 -21.068499
v -53.109360 -4.481383 -21.068499
vt 1.000000 1.000000
vt 0.833333 0.500000
vt 1.000000 0.500000
vt 0.833333 1.000000
vt 0.666667 0.500000
vt 0.666667 1.000000
vt 0.500000 0.500000
vt 0.500000 1.000000
vt 0.333333 0.500000
vt 0.042154 0.130000
vt 0.250000 0.010000
vt 0.457846 0.130000
vt 0.333333 1.000000
vt 0.166667 0.500000
vt 0.166667 1.000000
vt -0.000000 0.500000
vt 0.542154 0.130000
vt 0.542154 0.370000
vt 0.957846 0.370000
vt 0.457846 0.370000
vt 0.250000 0.490000
vt 0.042154 0.370000
vt -0.000000 1.000000
vt 0.750000 0.490000
vt 0.957846 0.130000
vt 0.750000 0.010000
vn 0.0000 0.6100 0.7924
vn -0.6862 -0.6100 0.3962
vn -0.0000 -0.6100 0.7924
vn -0.6862 0.6100 0.3962
vn -0.6862 -0.6100 -0.3962
vn -0.6862 0.6100 -0.3962
vn 0.0000 -0.6100 -0.7924
vn 0.0000 0.6100 -0.7924
vn 0.6862 -0.6100 -0.3962
vn 0.6862 0.6100 -0.3962
vn 0.6862 -0.6100 0.3962
vn 0.6862 0.6100 0.3962
usemtl Chimney_4
s 1
f 26/53/25 27/54/26 25/55/27
f 28/56/28 29/57/29 27/54/26
f 30/58/30 31/59/31 29/57/29
f 32/60/32 33/61/33 31/59/31
f 34/62/34 32/63/32 30/64/30
f 34/65/34 35/66/35 33/61/33
f 36/67/36 25/68/27 35/66/35
f 33/69/33 35/70/35 27/71/26
f 26/53/25 28/56/28 27/54/26
f 28/56/28 30/58/30 29/57/29
f 30/58/30 32/60/32 31/59/31
f 32/60/32 34/65/34 33/61/33
f 30/64/30 28/72/28 26/73/25
f 26/73/25 36/74/36 30/64/30
f 36/74/36 34/62/34 30/64/30
f 34/65/34 36/67/36 35/66/35
f 36/67/36 26/75/25 25/68/27
f 35/70/35 25/76/27 27/71/26
f 27/71/26 29/77/29 31/78/31
f 31/78/31 33/69/33 27/71/26
o Cylinder.005_Cylinder.006
v -50.643383 -4.901654 39.290031
v -50.643383 -4.481383 39.290031
v -50.489605 -4.901654 39.378815
v -50.489605 -4.481383 39.378815
v -50.489605 -4.901654 39.556381
v -50.489605 -4.481383 39.556381
v -50.643383 -4.901654 39.645164
v -50.643383 -4.481383 39.645164
v -50.797161 -4.901654 39.556381
v -50.797161 -4.481383 39.556381
v -50.797161 -4.901654 39.378815
v -50.797161 -4.481383 39.378815
vt 1.000000 1.000000
vt 0.833333 0.500000
vt 1.000000 0.500000
vt 0.833333 1.000000
vt 0.666667 0.500000
vt 0.666667 1.000000
vt 0.500000 0.500000
vt 0.500000 1.000000
vt 0.333333 0.500000
vt 0.042154 0.130000
vt 0.250000 0.010000
vt 0.457846 0.130000
vt 0.333333 1.000000
vt 0.166667 0.500000
vt 0.166667 1.000000
vt -0.000000 0.500000
vt 0.542154 0.130000
vt 0.542154 0.370000
vt 0.957846 0.370000
vt 0.457846 0.370000
vt 0.250000 0.490000
vt 0.042154 0.370000
vt -0.000000 1.000000
vt 0.750000 0.490000
vt 0.957846 0.130000
vt 0.750000 0.010000
vn -0.0000 0.6100 -0.7924
vn 0.6862 -0.6100 -0.3962
vn 0.0000 -0.6100 -0.7924
vn 0.6862 0.6100 -0.3962
vn 0.6862 -0.6100 0.3962
vn 0.6862 0.6100 0.3962
vn 0.0000 -0.6100 0.7924
vn -0.0000 0.6100 0.7924
vn -0.6862 -0.6100 0.3962
vn -0.6862 0.6100 0.3962
vn -0.6862 -0.6100 -0.3962
vn -0.6862 0.6100 -0.3962
usemtl Chimney_4
s 1
f 38/79/37 39/80/38 37/81/39
f 40/82/40 41/83/41 39/80/38
f 42/84/42 43/85/43 41/83/41
f 44/86/44 45/87/45 43/85/43
f 46/88/46 44/89/44 42/90/42
f 46/91/46 47/92/47 45/87/45
f 48/93/48 37/94/39 47/92/47
f 45/95/45 47/96/47 39/97/38
f 38/79/37 40/82/40 39/80/38
f 40/82/40 42/84/42 41/83/41
f 42/84/42 44/86/44 43/85/43
f 44/86/44 46/91/46 45/87/45
f 42/90/42 40/98/40 38/99/37
f 38/99/37 48/100/48 42/90/42
f 48/100/48 46/88/46 42/90/42
f 46/91/46 48/93/48 47/92/47
f 48/93/48 38/101/37 37/94/39
f 47/96/47 37/102/39 39/97/38
f 39/97/38 41/103/41 43/104/43
f 43/104/43 45/95/45 39/97/38
o Cylinder.003_Cylinder.004
v -27.026485 -4.901654 39.290031
v -27.026485 -4.481383 39.290031
v -26.872709 -4.901654 39.378815
v -26.872709 -4.481383 39.378815
v -26.872709 -4.901654 39.556381
v -26.872709 -4.481383 39.556381
v -27.026485 -4.901654 39.645164
v -27.026485 -4.481383 39.645164
v -27.180262 -4.901654 39.556381
v -27.180262 -4.481383 39.556381
v -27.180262 -4.901654 39.378815
v -27.180262 -4.481383 39.378815
vt 1.000000 1.000000
vt 0.833333 0.500000
vt 1.000000 0.500000
vt 0.833333 1.000000
vt 0.666667 0.500000
vt 0.666667 1.000000
vt 0.500000 0.500000
vt 0.500000 1.000000
vt 0.333333 0.500000
vt 0.042154 0.130000
vt 0.250000 0.010000
vt 0.457846 0.130000
vt 0.333333 1.000000
vt 0.166667 0.500000
vt 0.166667 1.000000
vt -0.000000 0.500000
vt 0.542154 0.130000
vt 0.542154 0.370000
vt 0.957846 0.370000
vt 0.457846 0.370000
vt 0.250000 0.490000
vt 0.042154 0.370000
vt -0.000000 1.000000
vt 0.750000 0.490000
vt 0.957846 0.130000
vt 0.750000 0.010000
vn -0.0000 0.6100 -0.7924
vn 0.6862 -0.6100 -0.3962
vn 0.0000 -0.6100 -0.7924
vn 0.6862 0.6100 -0.3962
vn 0.6862 -0.6100 0.3962
vn 0.6862 0.6100 0.3962
vn 0.0000 -0.6100 0.7924
vn -0.0000 0.6100 0.7924
vn -0.6862 -0.6100 0.3962
vn -0.6862 0.6100 0.3962
vn -0.6862 -0.6100 -0.3962
vn -0.6862 0.6100 -0.3962
usemtl Chimney_4
s 1
f 50/105/49 51/106/50 49/107/51
f 52/108/52 53/109/53 51/106/50
f 54/110/54 55/111/55 53/109/53
f 56/112/56 57/113/57 55/111/55
f 58/114/58 56/115/56 54/116/54
f 58/117/58 59/118/59 57/113/57
f 60/119/60 49/120/51 59/118/59
f 57/121/57 59/122/59 51/123/50
f 50/105/49 52/108/52 51/106/50
f 52/108/52 54/110/54 53/109/53
f 54/110/54 56/112/56 55/111/55
f 56/112/56 58/117/58 57/113/57
f 54/116/54 52/124/52 50/125/49
f 50/125/49 60/126/60 54/116/54
f 60/126/60 58/114/58 54/116/54
f 58/117/58 60/119/60 59/118/59
f 60/119/60 50/127/49 49/120/51
f 59/122/59 49/128/51 51/123/50
f 51/123/50 53/129/53 55/130/55
f 55/130/55 57/121/57 51/123/50
o Cylinder
v -3.203707 -4.901654 39.290031
v -3.203707 -4.481383 39.290031
v -3.049931 -4.901654 39.378815
v -3.049931 -4.481383 39.378815
v -3.049931 -4.901654 39.556381
v -3.049931 -4.481383 39.556381
v -3.203707 -4.901654 39.645164
v -3.203707 -4.481383 39.645164
v -3.357484 -4.901654 39.556381
v -3.357484 -4.481383 39.556381
v -3.357484 -4.901654 39.378815
v -3.357484 -4.481383 39.378815
vt 1.000000 1.000000
vt 0.833333 0.500000
vt 1.000000 0.500000
vt 0.833333 1.000000
vt 0.666667 0.500000
vt 0.666667 1.000000
vt 0.500000 0.500000
vt 0.500000 1.000000
vt 0.333333 0.500000
vt 0.042154 0.130000
vt 0.250000 0.010000
vt 0.457846 0.130000
vt 0.333333 1.000000
vt 0.166667 0.500000
vt 0.166667 1.000000
vt -0.000000 0.500000
vt 0.542154 0.130000
vt 0.542154 0.370000
vt 0.957846 0.370000
vt 0.457846 0.370000
vt 0.250000 0.490000
vt 0.042154 0.370000
vt -0.000000 1.000000
vt 0.750000 0.490000
vt 0.957846 0.130000
vt 0.750000 0.010000
vn -0.0000 0.6100 -0.7924
vn 0.6862 -0.6100 -0.3962
vn 0.0000 -0.6100 -0.7924
vn 0.6862 0.6100 -0.3962
vn 0.6862 -0.6100 0.3962
vn 0.6862 0.6100 0.3962
vn 0.0000 -0.6100 0.7924
vn -0.0000 0.6100 0.7924
vn -0.6862 -0.6100 0.3962
vn -0.6862 0.6100 0.3962
vn -0.6862 -0.6100 -0.3962
vn -0.6862 0.6100 -0.3962
usemtl Chimney_4
s 1
f 62/131/61 63/132/62 61/133/63
f 64/134/64 65/135/65 63/132/62
f 66/136/66 67/137/67 65/135/65
f 68/138/68 69/139/69 67/137/67
f 70/140/70 68/141/68 66/142/66
f 70/143/70 71/144/71 69/139/69
f 72/145/72 61/146/63 71/144/71
f 69/147/69 71/148/71 63/149/62
f 62/131/61 64/134/64 63/132/62
f 64/134/64 66/136/66 65/135/65
f 66/136/66 68/138/68 67/137/67
f 68/138/68 70/143/70 69/139/69
f 66/142/66 64/150/64 62/151/61
f 62/151/61 72/152/72 66/142/66
f 72/152/72 70/140/70 66/142/66
f 70/143/70 72/145/72 71/144/71
f 72/145/72 62/153/61 61/146/63
f 71/148/71 61/154/63 63/149/62
f 63/149/62 65/155/65 67/156/67
f 67/156/67 69/147/69 63/149/62
