# Blender v3.2.0 OBJ File: ''
# www.blender.org
mtllib ground.mtl
o Cube.222_Cube.263
v 51.957508 -16.299480 -63.979172
v 51.957508 -15.970636 -63.979172
v 51.957539 -16.299559 75.337860
v 51.957539 -15.970715 75.337860
v -104.571838 -16.299503 -63.979141
v -104.571838 -15.970659 -63.979141
v -104.571808 -16.299582 75.337891
v -104.571808 -15.970738 75.337891
vt 0.875000 0.500000
vt 0.625000 0.500000
vt 0.625000 0.750000
vt 0.375000 0.750000
vt 0.375000 1.000000
vt 0.625000 0.000000
vt 0.375000 0.000000
vt 0.375000 0.250000
vt 0.375000 0.500000
vt 0.125000 0.500000
vt 0.125000 0.750000
vt 0.625000 0.250000
vt 0.875000 0.750000
vt 0.625000 1.000000
vn 0.0000 -1.0000 -0.0000
vn 0.0000 0.0000 1.0000
vn -1.0000 0.0000 0.0000
vn -0.0000 1.0000 0.0000
vn 1.0000 0.0000 -0.0000
vn -0.0000 0.0000 -1.0000
usemtl Material.004
s off
f 5/1/1 1/2/1 3/3/1
f 3/3/2 4/4/2 8/5/2
f 7/6/3 8/7/3 6/8/3
f 2/9/4 6/10/4 8/11/4
f 1/2/5 2/9/5 4/4/5
f 5/12/6 6/8/6 2/9/6
f 5/1/1 3/3/1 7/13/1
f 3/3/2 8/5/2 7/14/2
f 7/6/3 6/8/3 5/12/3
f 2/9/4 8/11/4 4/4/4
f 1/2/5 4/4/5 3/3/5
f 5/12/6 2/9/6 1/2/6
