# Blender v3.2.0 OBJ File: 'MOBIL.blend'
# www.blender.org
mtllib main_car_tire.mtl
o Cylinder.015_Cylinder.010
v -33.317543 -15.655166 -1.901254
v -33.317543 -15.655166 -2.215298
v -33.157890 -15.612385 -1.901254
v -33.157890 -15.612385 -2.215298
v -33.041008 -15.495507 -1.901254
v -33.041008 -15.495507 -2.215298
v -32.998230 -15.335849 -1.901254
v -32.998230 -15.335849 -2.215297
v -33.041008 -15.176190 -1.901254
v -33.041008 -15.176190 -2.215297
v -33.157890 -15.059313 -1.901254
v -33.157890 -15.059313 -2.215297
v -33.317543 -15.016532 -1.901254
v -33.317543 -15.016532 -2.215297
v -33.477203 -15.059313 -1.901254
v -33.477203 -15.059313 -2.215297
v -33.594086 -15.176190 -1.901254
v -33.594086 -15.176190 -2.215297
v -33.636856 -15.335849 -1.901254
v -33.636856 -15.335849 -2.215297
v -33.594086 -15.495507 -1.901254
v -33.594086 -15.495507 -2.215298
v -33.477203 -15.612385 -1.901254
v -33.477203 -15.612385 -2.215298
vt 1.000000 1.000000
vt 0.916667 0.500000
vt 1.000000 0.500000
vt 0.916667 1.000000
vt 0.833333 0.500000
vt 0.833333 1.000000
vt 0.750000 0.500000
vt 0.750000 1.000000
vt 0.666667 0.500000
vt 0.666667 1.000000
vt 0.583333 0.500000
vt 0.583333 1.000000
vt 0.500000 0.500000
vt 0.500000 1.000000
vt 0.416667 0.500000
vt 0.416667 1.000000
vt 0.333333 0.500000
vt 0.333333 1.000000
vt 0.250000 0.500000
vt 0.250000 1.000000
vt 0.166667 0.500000
vt 0.250000 0.490000
vt 0.042154 0.370000
vt 0.250000 0.010000
vt 0.166667 1.000000
vt 0.083333 0.500000
vt 0.083333 1.000000
vt 0.000000 0.500000
vt 0.510000 0.250000
vt 0.630000 0.457846
vt 0.990000 0.250000
vt 0.457846 0.370000
vt 0.370000 0.457846
vt 0.130000 0.457846
vt 0.010000 0.250000
vt 0.042154 0.130000
vt 0.130000 0.042154
vt 0.370000 0.042154
vt 0.457846 0.130000
vt 0.490000 0.250000
vt 0.000000 1.000000
vt 0.750000 0.490000
vt 0.870000 0.457846
vt 0.957846 0.370000
vt 0.957846 0.130000
vt 0.870000 0.042154
vt 0.750000 0.010000
vt 0.630000 0.042154
vt 0.542154 0.130000
vt 0.542154 0.370000
vn 0.2588 -0.9659 0.0000
vn 0.7071 -0.7071 0.0000
vn 0.9659 -0.2588 0.0000
vn 0.9659 0.2588 0.0000
vn 0.7071 0.7071 0.0000
vn 0.2588 0.9659 0.0000
vn -0.2588 0.9659 0.0000
vn -0.7071 0.7071 0.0000
vn -0.9659 0.2588 0.0000
vn -0.9659 -0.2588 0.0000
vn 0.0000 0.0000 -1.0000
vn -0.7071 -0.7071 0.0000
vn -0.2588 -0.9659 0.0000
vn 0.0000 -0.0000 1.0000
usemtl Material.001
s off
f 2/1/1 3/2/1 1/3/1
f 4/4/2 5/5/2 3/2/2
f 6/6/3 7/7/3 5/5/3
f 8/8/4 9/9/4 7/7/4
f 10/10/5 11/11/5 9/9/5
f 12/12/6 13/13/6 11/11/6
f 14/14/7 15/15/7 13/13/7
f 16/16/8 17/17/8 15/15/8
f 18/18/9 19/19/9 17/17/9
f 20/20/10 21/21/10 19/19/10
f 2/22/11 22/23/11 14/24/11
f 22/25/12 23/26/12 21/21/12
f 24/27/13 1/28/13 23/26/13
f 19/29/14 23/30/14 7/31/14
f 2/1/1 4/4/1 3/2/1
f 4/4/2 6/6/2 5/5/2
f 6/6/3 8/8/3 7/7/3
f 8/8/4 10/10/4 9/9/4
f 10/10/5 12/12/5 11/11/5
f 12/12/6 14/14/6 13/13/6
f 14/14/7 16/16/7 15/15/7
f 16/16/8 18/18/8 17/17/8
f 18/18/9 20/20/9 19/19/9
f 20/20/10 22/25/10 21/21/10
f 6/32/11 4/33/11 2/22/11
f 2/22/11 24/34/11 22/23/11
f 22/23/11 20/35/11 14/24/11
f 20/35/11 18/36/11 14/24/11
f 18/36/11 16/37/11 14/24/11
f 14/24/11 12/38/11 10/39/11
f 10/39/11 8/40/11 14/24/11
f 8/40/11 6/32/11 14/24/11
f 6/32/11 2/22/11 14/24/11
f 22/25/12 24/27/12 23/26/12
f 24/27/13 2/41/13 1/28/13
f 23/30/14 1/42/14 3/43/14
f 3/43/14 5/44/14 7/31/14
f 7/31/14 9/45/14 11/46/14
f 11/46/14 13/47/14 15/48/14
f 15/48/14 17/49/14 19/29/14
f 19/29/14 21/50/14 23/30/14
f 23/30/14 3/43/14 7/31/14
f 7/31/14 11/46/14 15/48/14
f 15/48/14 19/29/14 7/31/14
o Cylinder.014_Cylinder.011
v -36.051926 -15.655166 -1.901254
v -36.051926 -15.655166 -2.215298
v -35.892273 -15.612385 -1.901254
v -35.892273 -15.612385 -2.215298
v -35.775391 -15.495507 -1.901254
v -35.775391 -15.495507 -2.215298
v -35.732613 -15.335849 -1.901254
v -35.732613 -15.335849 -2.215297
v -35.775391 -15.176190 -1.901254
v -35.775391 -15.176190 -2.215297
v -35.892273 -15.059313 -1.901254
v -35.892273 -15.059313 -2.215297
v -36.051926 -15.016532 -1.901254
v -36.051926 -15.016532 -2.215297
v -36.211586 -15.059313 -1.901254
v -36.211586 -15.059313 -2.215297
v -36.328468 -15.176190 -1.901254
v -36.328468 -15.176190 -2.215297
v -36.371239 -15.335849 -1.901254
v -36.371239 -15.335849 -2.215297
v -36.328468 -15.495507 -1.901254
v -36.328468 -15.495507 -2.215298
v -36.211586 -15.612385 -1.901254
v -36.211586 -15.612385 -2.215298
vt 1.000000 1.000000
vt 0.916667 0.500000
vt 1.000000 0.500000
vt 0.916667 1.000000
vt 0.833333 0.500000
vt 0.833333 1.000000
vt 0.750000 0.500000
vt 0.750000 1.000000
vt 0.666667 0.500000
vt 0.666667 1.000000
vt 0.583333 0.500000
vt 0.583333 1.000000
vt 0.500000 0.500000
vt 0.500000 1.000000
vt 0.416667 0.500000
vt 0.416667 1.000000
vt 0.333333 0.500000
vt 0.333333 1.000000
vt 0.250000 0.500000
vt 0.250000 1.000000
vt 0.166667 0.500000
vt 0.250000 0.490000
vt 0.042154 0.370000
vt 0.250000 0.010000
vt 0.166667 1.000000
vt 0.083333 0.500000
vt 0.083333 1.000000
vt 0.000000 0.500000
vt 0.510000 0.250000
vt 0.630000 0.457846
vt 0.990000 0.250000
vt 0.457846 0.370000
vt 0.370000 0.457846
vt 0.130000 0.457846
vt 0.010000 0.250000
vt 0.042154 0.130000
vt 0.130000 0.042154
vt 0.370000 0.042154
vt 0.457846 0.130000
vt 0.490000 0.250000
vt 0.000000 1.000000
vt 0.750000 0.490000
vt 0.870000 0.457846
vt 0.957846 0.370000
vt 0.957846 0.130000
vt 0.870000 0.042154
vt 0.750000 0.010000
vt 0.630000 0.042154
vt 0.542154 0.130000
vt 0.542154 0.370000
vn 0.2588 -0.9659 0.0000
vn 0.7071 -0.7071 0.0000
vn 0.9659 -0.2588 0.0000
vn 0.9659 0.2588 0.0000
vn 0.7071 0.7071 0.0000
vn 0.2588 0.9659 0.0000
vn -0.2588 0.9659 0.0000
vn -0.7071 0.7071 0.0000
vn -0.9659 0.2588 0.0000
vn -0.9659 -0.2587 0.0000
vn 0.0000 0.0000 -1.0000
vn -0.7071 -0.7071 0.0000
vn -0.2588 -0.9659 0.0000
vn 0.0000 -0.0000 1.0000
vn -0.9659 -0.2588 0.0000
usemtl Material.003
s off
f 26/51/15 27/52/15 25/53/15
f 28/54/16 29/55/16 27/52/16
f 30/56/17 31/57/17 29/55/17
f 32/58/18 33/59/18 31/57/18
f 34/60/19 35/61/19 33/59/19
f 36/62/20 37/63/20 35/61/20
f 38/64/21 39/65/21 37/63/21
f 40/66/22 41/67/22 39/65/22
f 42/68/23 43/69/23 41/67/23
f 44/70/24 45/71/24 43/69/24
f 26/72/25 46/73/25 38/74/25
f 46/75/26 47/76/26 45/71/26
f 48/77/27 25/78/27 47/76/27
f 43/79/28 47/80/28 31/81/28
f 26/51/15 28/54/15 27/52/15
f 28/54/16 30/56/16 29/55/16
f 30/56/17 32/58/17 31/57/17
f 32/58/18 34/60/18 33/59/18
f 34/60/19 36/62/19 35/61/19
f 36/62/20 38/64/20 37/63/20
f 38/64/21 40/66/21 39/65/21
f 40/66/22 42/68/22 41/67/22
f 42/68/23 44/70/23 43/69/23
f 44/70/29 46/75/29 45/71/29
f 30/82/25 28/83/25 26/72/25
f 26/72/25 48/84/25 46/73/25
f 46/73/25 44/85/25 38/74/25
f 44/85/25 42/86/25 38/74/25
f 42/86/25 40/87/25 38/74/25
f 38/74/25 36/88/25 34/89/25
f 34/89/25 32/90/25 38/74/25
f 32/90/25 30/82/25 38/74/25
f 30/82/25 26/72/25 38/74/25
f 46/75/26 48/77/26 47/76/26
f 48/77/27 26/91/27 25/78/27
f 47/80/28 25/92/28 27/93/28
f 27/93/28 29/94/28 31/81/28
f 31/81/28 33/95/28 35/96/28
f 35/96/28 37/97/28 39/98/28
f 39/98/28 41/99/28 43/79/28
f 43/79/28 45/100/28 47/80/28
f 47/80/28 27/93/28 31/81/28
f 31/81/28 35/96/28 39/98/28
f 39/98/28 43/79/28 31/81/28
o Cylinder.013_Cylinder.012
v -36.051926 -15.032965 -4.626823
v -36.051926 -15.032965 -4.312780
v -35.892273 -15.075745 -4.626823
v -35.892273 -15.075745 -4.312780
v -35.775391 -15.192623 -4.626823
v -35.775391 -15.192623 -4.312780
v -35.732613 -15.352282 -4.626823
v -35.732613 -15.352282 -4.312780
v -35.775391 -15.511940 -4.626823
v -35.775391 -15.511940 -4.312780
v -35.892273 -15.628818 -4.626823
v -35.892273 -15.628818 -4.312780
v -36.051926 -15.671598 -4.626823
v -36.051926 -15.671598 -4.312780
v -36.211586 -15.628818 -4.626823
v -36.211586 -15.628818 -4.312780
v -36.328468 -15.511940 -4.626823
v -36.328468 -15.511940 -4.312780
v -36.371239 -15.352282 -4.626823
v -36.371239 -15.352282 -4.312780
v -36.328468 -15.192623 -4.626823
v -36.328468 -15.192623 -4.312780
v -36.211586 -15.075745 -4.626823
v -36.211586 -15.075745 -4.312780
vt 1.000000 1.000000
vt 0.916667 0.500000
vt 1.000000 0.500000
vt 0.916667 1.000000
vt 0.833333 0.500000
vt 0.833333 1.000000
vt 0.750000 0.500000
vt 0.750000 1.000000
vt 0.666667 0.500000
vt 0.666667 1.000000
vt 0.583333 0.500000
vt 0.583333 1.000000
vt 0.500000 0.500000
vt 0.500000 1.000000
vt 0.416667 0.500000
vt 0.416667 1.000000
vt 0.333333 0.500000
vt 0.333333 1.000000
vt 0.250000 0.500000
vt 0.250000 1.000000
vt 0.166667 0.500000
vt 0.250000 0.490000
vt 0.042154 0.370000
vt 0.250000 0.010000
vt 0.166667 1.000000
vt 0.083333 0.500000
vt 0.083333 1.000000
vt 0.000000 0.500000
vt 0.510000 0.250000
vt 0.630000 0.457846
vt 0.990000 0.250000
vt 0.457846 0.370000
vt 0.370000 0.457846
vt 0.130000 0.457846
vt 0.010000 0.250000
vt 0.042154 0.130000
vt 0.130000 0.042154
vt 0.370000 0.042154
vt 0.457846 0.130000
vt 0.490000 0.250000
vt 0.000000 1.000000
vt 0.750000 0.490000
vt 0.870000 0.457846
vt 0.957846 0.370000
vt 0.957846 0.130000
vt 0.870000 0.042154
vt 0.750000 0.010000
vt 0.630000 0.042154
vt 0.542154 0.130000
vt 0.542154 0.370000
vn 0.2588 0.9659 0.0000
vn 0.7071 0.7071 0.0000
vn 0.9659 0.2588 0.0000
vn 0.9659 -0.2588 0.0000
vn 0.7071 -0.7071 0.0000
vn 0.2588 -0.9659 0.0000
vn -0.2588 -0.9659 0.0000
vn -0.7071 -0.7071 0.0000
vn -0.9659 -0.2588 0.0000
vn -0.9659 0.2588 0.0000
vn 0.0000 0.0000 1.0000
vn -0.7071 0.7071 0.0000
vn -0.2588 0.9659 0.0000
vn 0.0000 0.0000 -1.0000
usemtl Material.003
s off
f 50/101/30 51/102/30 49/103/30
f 52/104/31 53/105/31 51/102/31
f 54/106/32 55/107/32 53/105/32
f 56/108/33 57/109/33 55/107/33
f 58/110/34 59/111/34 57/109/34
f 60/112/35 61/113/35 59/111/35
f 62/114/36 63/115/36 61/113/36
f 64/116/37 65/117/37 63/115/37
f 66/118/38 67/119/38 65/117/38
f 68/120/39 69/121/39 67/119/39
f 50/122/40 70/123/40 62/124/40
f 70/125/41 71/126/41 69/121/41
f 72/127/42 49/128/42 71/126/42
f 67/129/43 71/130/43 55/131/43
f 50/101/30 52/104/30 51/102/30
f 52/104/31 54/106/31 53/105/31
f 54/106/32 56/108/32 55/107/32
f 56/108/33 58/110/33 57/109/33
f 58/110/34 60/112/34 59/111/34
f 60/112/35 62/114/35 61/113/35
f 62/114/36 64/116/36 63/115/36
f 64/116/37 66/118/37 65/117/37
f 66/118/38 68/120/38 67/119/38
f 68/120/39 70/125/39 69/121/39
f 54/132/40 52/133/40 50/122/40
f 50/122/40 72/134/40 70/123/40
f 70/123/40 68/135/40 62/124/40
f 68/135/40 66/136/40 62/124/40
f 66/136/40 64/137/40 62/124/40
f 62/124/40 60/138/40 58/139/40
f 58/139/40 56/140/40 62/124/40
f 56/140/40 54/132/40 62/124/40
f 54/132/40 50/122/40 62/124/40
f 70/125/41 72/127/41 71/126/41
f 72/127/42 50/141/42 49/128/42
f 71/130/43 49/142/43 51/143/43
f 51/143/43 53/144/43 55/131/43
f 55/131/43 57/145/43 59/146/43
f 59/146/43 61/147/43 63/148/43
f 63/148/43 65/149/43 67/129/43
f 67/129/43 69/150/43 71/130/43
f 71/130/43 51/143/43 55/131/43
f 55/131/43 59/146/43 63/148/43
f 63/148/43 67/129/43 55/131/43
o Cylinder.012_Cylinder.024
v -33.317543 -15.032965 -4.626823
v -33.317543 -15.032965 -4.312780
v -33.157890 -15.075745 -4.626823
v -33.157890 -15.075745 -4.312780
v -33.041008 -15.192623 -4.626823
v -33.041008 -15.192623 -4.312780
v -32.998230 -15.352282 -4.626823
v -32.998230 -15.352282 -4.312780
v -33.041008 -15.511940 -4.626823
v -33.041008 -15.511940 -4.312780
v -33.157890 -15.628818 -4.626823
v -33.157890 -15.628818 -4.312780
v -33.317543 -15.671598 -4.626823
v -33.317543 -15.671598 -4.312780
v -33.477203 -15.628818 -4.626823
v -33.477203 -15.628818 -4.312780
v -33.594086 -15.511940 -4.626823
v -33.594086 -15.511940 -4.312780
v -33.636856 -15.352282 -4.626823
v -33.636856 -15.352282 -4.312780
v -33.594086 -15.192623 -4.626823
v -33.594086 -15.192623 -4.312780
v -33.477203 -15.075745 -4.626823
v -33.477203 -15.075745 -4.312780
vt 1.000000 1.000000
vt 0.916667 0.500000
vt 1.000000 0.500000
vt 0.916667 1.000000
vt 0.833333 0.500000
vt 0.833333 1.000000
vt 0.750000 0.500000
vt 0.750000 1.000000
vt 0.666667 0.500000
vt 0.666667 1.000000
vt 0.583333 0.500000
vt 0.583333 1.000000
vt 0.500000 0.500000
vt 0.500000 1.000000
vt 0.416667 0.500000
vt 0.416667 1.000000
vt 0.333333 0.500000
vt 0.333333 1.000000
vt 0.250000 0.500000
vt 0.250000 1.000000
vt 0.166667 0.500000
vt 0.250000 0.490000
vt 0.042154 0.370000
vt 0.250000 0.010000
vt 0.166667 1.000000
vt 0.083333 0.500000
vt 0.083333 1.000000
vt 0.000000 0.500000
vt 0.510000 0.250000
vt 0.630000 0.457846
vt 0.990000 0.250000
vt 0.457846 0.370000
vt 0.370000 0.457846
vt 0.130000 0.457846
vt 0.010000 0.250000
vt 0.042154 0.130000
vt 0.130000 0.042154
vt 0.370000 0.042154
vt 0.457846 0.130000
vt 0.490000 0.250000
vt 0.000000 1.000000
vt 0.750000 0.490000
vt 0.870000 0.457846
vt 0.957846 0.370000
vt 0.957846 0.130000
vt 0.870000 0.042154
vt 0.750000 0.010000
vt 0.630000 0.042154
vt 0.542154 0.130000
vt 0.542154 0.370000
vn 0.2588 0.9659 0.0000
vn 0.7071 0.7071 0.0000
vn 0.9659 0.2588 0.0000
vn 0.9659 -0.2588 0.0000
vn 0.7071 -0.7071 0.0000
vn 0.2588 -0.9659 0.0000
vn -0.2588 -0.9659 0.0000
vn -0.7071 -0.7071 0.0000
vn -0.9659 -0.2588 0.0000
vn -0.9659 0.2588 0.0000
vn 0.0000 0.0000 1.0000
vn -0.7071 0.7071 0.0000
vn -0.2588 0.9659 0.0000
vn 0.0000 0.0000 -1.0000
usemtl Material.001
s off
f 74/151/44 75/152/44 73/153/44
f 76/154/45 77/155/45 75/152/45
f 78/156/46 79/157/46 77/155/46
f 80/158/47 81/159/47 79/157/47
f 82/160/48 83/161/48 81/159/48
f 84/162/49 85/163/49 83/161/49
f 86/164/50 87/165/50 85/163/50
f 88/166/51 89/167/51 87/165/51
f 90/168/52 91/169/52 89/167/52
f 92/170/53 93/171/53 91/169/53
f 74/172/54 94/173/54 86/174/54
f 94/175/55 95/176/55 93/171/55
f 96/177/56 73/178/56 95/176/56
f 91/179/57 95/180/57 79/181/57
f 74/151/44 76/154/44 75/152/44
f 76/154/45 78/156/45 77/155/45
f 78/156/46 80/158/46 79/157/46
f 80/158/47 82/160/47 81/159/47
f 82/160/48 84/162/48 83/161/48
f 84/162/49 86/164/49 85/163/49
f 86/164/50 88/166/50 87/165/50
f 88/166/51 90/168/51 89/167/51
f 90/168/52 92/170/52 91/169/52
f 92/170/53 94/175/53 93/171/53
f 78/182/54 76/183/54 74/172/54
f 74/172/54 96/184/54 94/173/54
f 94/173/54 92/185/54 86/174/54
f 92/185/54 90/186/54 86/174/54
f 90/186/54 88/187/54 86/174/54
f 86/174/54 84/188/54 82/189/54
f 82/189/54 80/190/54 86/174/54
f 80/190/54 78/182/54 86/174/54
f 78/182/54 74/172/54 86/174/54
f 94/175/55 96/177/55 95/176/55
f 96/177/56 74/191/56 73/178/56
f 95/180/57 73/192/57 75/193/57
f 75/193/57 77/194/57 79/181/57
f 79/181/57 81/195/57 83/196/57
f 83/196/57 85/197/57 87/198/57
f 87/198/57 89/199/57 91/179/57
f 91/179/57 93/200/57 95/180/57
f 95/180/57 75/193/57 79/181/57
f 79/181/57 83/196/57 87/198/57
f 87/198/57 91/179/57 79/181/57
