# Blender v3.2.0 OBJ File: 'MOBIL.blend'
# www.blender.org
mtllib main_car_lamp.mtl
o Cube.226_Cube.009
v -32.710022 -15.317546 -2.530540
v -32.710022 -15.317546 -2.725139
v -32.710022 -15.151156 -2.725139
v -32.710022 -15.151156 -2.530540
v -32.623680 -15.317546 -2.530540
v -32.623680 -15.317546 -2.725139
v -32.623680 -15.151156 -2.725139
v -32.623680 -15.151156 -2.530540
v -32.710022 -15.350380 -2.530540
v -32.710022 -15.350380 -2.725139
v -32.710022 -15.118322 -2.725139
v -32.710022 -15.118322 -2.530540
v -32.600456 -15.340763 -2.530540
v -32.600456 -15.340763 -2.725139
v -32.600456 -15.127939 -2.725139
v -32.600456 -15.127939 -2.530540
v -32.710022 -15.350380 -2.530540
v -32.710022 -15.350380 -2.725139
v -32.710022 -15.118322 -2.725139
v -32.710022 -15.118322 -2.530540
v -32.600456 -15.340763 -2.530540
v -32.600456 -15.340763 -2.725139
v -32.600456 -15.127939 -2.725139
v -32.600456 -15.127939 -2.530540
v -32.600456 -15.340763 -2.530540
v -32.600456 -15.340763 -2.725139
v -32.600456 -15.127939 -2.725139
v -32.600456 -15.127939 -2.530540
v -32.582909 -15.340763 -2.530540
v -32.582909 -15.340763 -2.725139
v -32.582909 -15.127939 -2.725139
v -32.582909 -15.127939 -2.530540
v -32.709946 -15.117510 -2.725139
v -32.709946 -15.117510 -2.530540
v -32.600388 -15.127127 -2.725139
v -32.600388 -15.127127 -2.530540
v -32.709976 -15.350919 -2.530540
v -32.709976 -15.350919 -2.725139
v -32.600410 -15.341302 -2.530540
v -32.600410 -15.341302 -2.725139
v -32.710022 -15.317546 -4.003158
v -32.710022 -15.317546 -3.808559
v -32.710022 -15.151156 -3.808559
v -32.710022 -15.151156 -4.003158
v -32.623680 -15.317546 -4.003158
v -32.623680 -15.317546 -3.808559
v -32.623680 -15.151156 -3.808559
v -32.623680 -15.151156 -4.003158
v -32.710022 -15.350380 -4.003158
v -32.710022 -15.350380 -3.808559
v -32.710022 -15.118322 -3.808559
v -32.710022 -15.118322 -4.003158
v -32.600456 -15.340763 -4.003158
v -32.600456 -15.340763 -3.808559
v -32.600456 -15.127939 -3.808559
v -32.600456 -15.127939 -4.003158
v -32.710022 -15.350380 -4.003158
v -32.710022 -15.350380 -3.808559
v -32.710022 -15.118322 -3.808559
v -32.710022 -15.118322 -4.003158
v -32.600456 -15.340763 -4.003158
v -32.600456 -15.340763 -3.808559
v -32.600456 -15.127939 -3.808559
v -32.600456 -15.127939 -4.003158
v -32.600456 -15.340763 -4.003158
v -32.600456 -15.340763 -3.808559
v -32.600456 -15.127939 -3.808559
v -32.600456 -15.127939 -4.003158
v -32.582909 -15.340763 -4.003158
v -32.582909 -15.340763 -3.808559
v -32.582909 -15.127939 -3.808559
v -32.582909 -15.127939 -4.003158
v -32.709946 -15.117510 -3.808559
v -32.709946 -15.117510 -4.003158
v -32.600388 -15.127127 -3.808559
v -32.600388 -15.127127 -4.003158
v -32.709976 -15.350919 -4.003158
v -32.709976 -15.350919 -3.808559
v -32.600410 -15.341302 -4.003158
v -32.600410 -15.341302 -3.808559
vt 0.375000 0.666667
vt 0.375000 0.708333
vt 0.375000 0.708333
vt 0.625000 0.666667
vt 0.625000 0.708333
vt 0.625000 0.666667
vt 0.625000 0.666667
vt 0.375000 0.666667
vt 0.375000 0.708333
vt 0.375000 0.666667
vt 0.625000 0.708333
vt 0.000000 0.000000
vt 0.000000 0.000000
vt 0.000000 0.000000
vt 0.000000 0.000000
vt 0.000000 0.000000
vt 0.000000 0.000000
vt 0.000000 0.000000
vt 0.000000 0.000000
vt 0.000000 0.000000
vt 0.000000 0.000000
vt 0.000000 0.000000
vt 0.000000 0.000000
vt 0.000000 0.000000
vt 0.000000 0.000000
vt 0.375000 0.708333
vt 0.375000 0.666667
vt 0.375000 0.708333
vt 0.625000 0.666667
vt 0.625000 0.666667
vt 0.625000 0.708333
vt 0.625000 0.666667
vt 0.375000 0.708333
vt 0.375000 0.666667
vt 0.375000 0.666667
vt 0.625000 0.708333
vt 0.000000 0.000000
vt 0.000000 0.000000
vt 0.000000 0.000000
vt 0.000000 0.000000
vt 0.000000 0.000000
vt 0.000000 0.000000
vt 0.000000 0.000000
vt 0.000000 0.000000
vt 0.000000 0.000000
vt 0.000000 0.000000
vt 0.000000 0.000000
vt 0.000000 0.000000
vt 0.625000 0.708333
vt 0.000000 0.000000
vt 0.000000 0.000000
vt 0.625000 0.708333
vt 0.000000 0.000000
vt 0.000000 0.000000
vt 0.000000 0.000000
vt 0.000000 0.000000
vt 0.625000 0.708333
vt 0.375000 0.666667
vt 0.625000 0.666667
vt 0.375000 0.708333
vt 0.625000 0.666667
vt 0.375000 0.708333
vt 0.375000 0.666667
vt 0.375000 0.708333
vt 0.625000 0.666667
vt 0.375000 0.666667
vt 0.625000 0.666667
vt 0.375000 0.708333
vt 0.375000 0.666667
vt 0.625000 0.708333
vt 0.625000 0.708333
vt 0.375000 0.666667
vt 0.375000 0.708333
vt 0.375000 0.708333
vt 0.375000 0.666667
vt 0.625000 0.708333
vt 0.625000 0.666667
vt 0.625000 0.666667
vt 0.625000 0.708333
vt 0.625000 0.708333
vt 0.625000 0.708333
vt 0.375000 0.666667
vt 0.625000 0.666667
vt 0.375000 0.708333
vt 0.375000 0.708333
vt 0.625000 0.666667
vt 0.375000 0.666667
vt 0.625000 0.666667
vt 0.375000 0.708333
vt 0.375000 0.666667
vt 0.375000 0.708333
vt 0.625000 0.666667
vt 0.375000 0.666667
vt 0.625000 0.708333
vt 0.625000 0.708333
vt 0.375000 0.708333
vt 0.375000 0.666667
vt 0.375000 0.708333
vt 0.375000 0.666667
vt 0.625000 0.666667
vt 0.625000 0.708333
vt 0.625000 0.666667
vt 0.625000 0.708333
vt 0.625000 0.708333
vn 1.0000 0.0000 0.0000
vn -0.0874 0.9962 0.0000
vn -0.0874 -0.9962 0.0000
vn -1.0000 0.0000 0.0000
vn 0.0000 0.0000 1.0000
vn -0.0000 0.0000 -1.0000
vn 0.9959 -0.0901 0.0000
vn 0.9967 0.0816 0.0000
vn -0.0001 0.0000 -1.0000
vn 0.9954 -0.0961 0.0000
vn 0.9959 0.0906 0.0000
vn 0.0000 1.0000 0.0000
vn 0.0000 -1.0000 0.0000
vn -0.9965 0.0841 0.0000
vn -0.9967 -0.0816 0.0000
vn -0.9959 -0.0906 0.0000
usemtl Material.011
s off
f 3/1/1 12/2/1 4/3/1
f 4/3/1 2/4/1 3/1/1
f 9/5/2 14/6/2 10/7/2
f 11/8/3 16/9/3 12/2/3
f 14/6/4 16/9/4 15/10/4
f 1/11/1 10/7/1 2/4/1
f 22/12/5 38/13/5 40/14/5
f 24/15/6 34/16/6 36/17/6
f 23/18/5 33/19/5 19/20/5
f 19/20/7 34/16/7 20/21/7
f 17/22/8 38/13/8 18/23/8
f 21/24/6 37/25/6 17/22/6
f 52/26/1 43/27/1 44/28/1
f 42/29/1 44/28/1 43/27/1
f 54/30/2 49/31/2 50/32/2
f 56/33/3 51/34/3 52/26/3
f 56/33/4 54/30/4 55/35/4
f 50/32/1 41/36/1 42/29/1
f 62/37/6 78/38/6 58/39/6
f 64/40/5 74/41/5 60/42/5
f 73/43/9 63/44/9 59/45/9
f 74/41/7 59/45/7 60/42/7
f 78/38/8 57/46/8 58/39/8
f 77/47/5 61/48/5 57/46/5
f 3/1/1 11/8/1 12/2/1
f 4/3/1 1/11/1 2/4/1
f 9/5/2 13/49/2 14/6/2
f 11/8/3 15/10/3 16/9/3
f 14/6/4 13/49/4 16/9/4
f 1/11/1 9/5/1 10/7/1
f 22/12/5 18/23/5 38/13/5
f 24/15/6 20/21/6 34/16/6
f 23/18/5 35/50/5 33/19/5
f 19/20/10 33/19/10 34/16/10
f 17/22/11 37/25/11 38/13/11
f 21/24/9 39/51/9 37/25/9
f 52/26/1 51/34/1 43/27/1
f 42/29/1 41/36/1 44/28/1
f 54/30/2 53/52/2 49/31/2
f 56/33/3 55/35/3 51/34/3
f 56/33/4 53/52/4 54/30/4
f 50/32/1 49/31/1 41/36/1
f 62/37/6 80/53/6 78/38/6
f 64/40/5 76/54/5 74/41/5
f 73/43/6 75/55/6 63/44/6
f 74/41/10 73/43/10 59/45/10
f 78/38/11 77/47/11 57/46/11
f 77/47/5 79/56/5 61/48/5
usemtl Material.017
f 5/57/6 9/5/6 1/11/6
f 7/58/5 11/8/5 3/1/5
f 6/59/5 15/10/5 7/58/5
f 8/60/6 12/2/6 16/9/6
f 6/59/5 10/7/5 14/6/5
f 5/57/6 16/9/6 13/49/6
f 22/61/4 24/62/4 23/63/4
f 28/64/1 26/65/1 27/66/1
f 30/67/4 32/68/4 31/69/4
f 26/65/5 31/69/5 27/66/5
f 25/70/12 30/67/12 26/65/12
f 28/64/6 29/71/6 25/70/6
f 27/66/13 32/68/13 28/64/13
f 33/72/3 36/73/3 34/74/3
f 24/62/14 35/75/14 23/63/14
f 37/76/2 40/77/2 38/78/2
f 22/61/15 39/79/15 21/80/15
f 49/31/5 45/81/5 41/36/5
f 51/34/6 47/82/6 43/27/6
f 55/35/6 46/83/6 47/82/6
f 48/84/5 52/26/5 44/28/5
f 46/83/6 50/32/6 42/29/6
f 45/81/5 56/33/5 48/84/5
f 64/85/4 62/86/4 63/87/4
f 66/88/1 68/89/1 67/90/1
f 72/91/4 70/92/4 71/93/4
f 71/93/6 66/88/6 67/90/6
f 70/92/12 65/94/12 66/88/12
f 69/95/5 68/89/5 65/94/5
f 72/91/13 67/90/13 68/89/13
f 76/96/3 73/97/3 74/98/3
f 75/99/14 64/85/14 63/87/14
f 80/100/2 77/101/2 78/102/2
f 79/103/15 62/86/15 61/104/15
f 5/57/6 13/49/6 9/5/6
f 7/58/5 15/10/5 11/8/5
f 6/59/5 14/6/5 15/10/5
f 8/60/6 4/3/6 12/2/6
f 6/59/5 2/4/5 10/7/5
f 5/57/6 8/60/6 16/9/6
f 22/61/4 21/80/4 24/62/4
f 28/64/1 25/70/1 26/65/1
f 30/67/4 29/71/4 32/68/4
f 26/65/5 30/67/5 31/69/5
f 25/70/12 29/71/12 30/67/12
f 28/64/6 32/68/6 29/71/6
f 27/66/13 31/69/13 32/68/13
f 33/72/3 35/75/3 36/73/3
f 24/62/14 36/73/14 35/75/14
f 37/76/2 39/79/2 40/77/2
f 22/61/16 40/77/16 39/79/16
f 49/31/5 53/52/5 45/81/5
f 51/34/6 55/35/6 47/82/6
f 55/35/6 54/30/6 46/83/6
f 48/84/5 56/33/5 52/26/5
f 46/83/6 54/30/6 50/32/6
f 45/81/5 53/52/5 56/33/5
f 64/85/4 61/104/4 62/86/4
f 66/88/1 65/94/1 68/89/1
f 72/91/4 69/95/4 70/92/4
f 71/93/6 70/92/6 66/88/6
f 70/92/12 69/95/12 65/94/12
f 69/95/5 72/91/5 68/89/5
f 72/91/13 71/93/13 67/90/13
f 76/96/3 75/99/3 73/97/3
f 75/99/14 76/96/14 64/85/14
f 80/100/2 79/103/2 77/101/2
f 79/103/16 80/100/16 62/86/16
