# Blender v3.2.0 OBJ File: ''
# www.blender.org
mtllib mini_square_roof.mtl
o Cube.221_Cube.262
v -3.427198 -4.747062 -23.278061
v -3.427198 -4.636557 -23.278061
v -3.427198 -4.747062 -23.007824
v -3.427198 -4.636557 -23.007824
v -3.697433 -4.747062 -23.278061
v -3.697433 -4.636557 -23.278061
v -3.697434 -4.747062 -23.007824
v -3.697434 -4.636557 -23.007824
v -5.644409 -4.747062 -23.278061
v -5.644409 -4.636557 -23.278061
v -5.644409 -4.747062 -23.007826
v -5.644409 -4.636557 -23.007826
v -5.914645 -4.747062 -23.278061
v -5.914645 -4.636557 -23.278061
v -5.914645 -4.747062 -23.007826
v -5.914645 -4.636557 -23.007826
v -4.600900 -4.747062 -23.278061
v -4.600900 -4.636557 -23.278061
v -4.600900 -4.747062 -23.007826
v -4.600900 -4.636557 -23.007826
v -4.871136 -4.747062 -23.278061
v -4.871136 -4.636557 -23.278061
v -4.871136 -4.747062 -23.007826
v -4.871136 -4.636557 -23.007826
vt 0.625000 0.000000
vt 0.375000 0.250000
vt 0.375000 0.000000
vt 0.625000 0.250000
vt 0.375000 0.500000
vt 0.625000 0.500000
vt 0.375000 0.750000
vt 0.625000 0.750000
vt 0.375000 1.000000
vt 0.125000 0.750000
vt 0.125000 0.500000
vt 0.875000 0.500000
vt 0.625000 0.000000
vt 0.375000 0.250000
vt 0.375000 0.000000
vt 0.625000 0.250000
vt 0.375000 0.500000
vt 0.625000 0.500000
vt 0.375000 0.750000
vt 0.625000 0.750000
vt 0.375000 1.000000
vt 0.125000 0.750000
vt 0.125000 0.500000
vt 0.875000 0.500000
vt 0.625000 0.000000
vt 0.375000 0.250000
vt 0.375000 0.000000
vt 0.625000 0.250000
vt 0.375000 0.500000
vt 0.625000 0.500000
vt 0.375000 0.750000
vt 0.625000 0.750000
vt 0.375000 1.000000
vt 0.125000 0.750000
vt 0.125000 0.500000
vt 0.875000 0.500000
vt 0.625000 1.000000
vt 0.875000 0.750000
vt 0.625000 1.000000
vt 0.875000 0.750000
vt 0.625000 1.000000
vt 0.875000 0.750000
vn 1.0000 0.0000 0.0000
vn 0.0000 0.0000 1.0000
vn -1.0000 0.0000 -0.0000
vn 0.0000 0.0000 -1.0000
vn 0.0000 -1.0000 -0.0000
vn 0.0000 1.0000 -0.0000
usemtl Chimney_1
s off
f 2/1/1 3/2/1 1/3/1
f 4/4/2 7/5/2 3/2/2
f 8/6/3 5/7/3 7/5/3
f 6/8/4 1/9/4 5/7/4
f 7/5/5 1/10/5 3/11/5
f 4/12/6 6/8/6 8/6/6
f 10/13/1 11/14/1 9/15/1
f 12/16/2 15/17/2 11/14/2
f 16/18/3 13/19/3 15/17/3
f 14/20/4 9/21/4 13/19/4
f 15/17/5 9/22/5 11/23/5
f 12/24/6 14/20/6 16/18/6
f 18/25/1 19/26/1 17/27/1
f 20/28/2 23/29/2 19/26/2
f 24/30/3 21/31/3 23/29/3
f 22/32/4 17/33/4 21/31/4
f 23/29/5 17/34/5 19/35/5
f 20/36/6 22/32/6 24/30/6
f 2/1/1 4/4/1 3/2/1
f 4/4/2 8/6/2 7/5/2
f 8/6/3 6/8/3 5/7/3
f 6/8/4 2/37/4 1/9/4
f 7/5/5 5/7/5 1/10/5
f 4/12/6 2/38/6 6/8/6
f 10/13/1 12/16/1 11/14/1
f 12/16/2 16/18/2 15/17/2
f 16/18/3 14/20/3 13/19/3
f 14/20/4 10/39/4 9/21/4
f 15/17/5 13/19/5 9/22/5
f 12/24/6 10/40/6 14/20/6
f 18/25/1 20/28/1 19/26/1
f 20/28/2 24/30/2 23/29/2
f 24/30/3 22/32/3 21/31/3
f 22/32/4 18/41/4 17/33/4
f 23/29/5 21/31/5 17/34/5
f 20/36/6 18/42/6 22/32/6
o Cube.184_Cube.225
v -27.044092 -4.747062 -23.278061
v -27.044092 -4.636557 -23.278061
v -27.044092 -4.747062 -23.007824
v -27.044092 -4.636557 -23.007824
v -27.314329 -4.747062 -23.278061
v -27.314329 -4.636557 -23.278061
v -27.314329 -4.747062 -23.007824
v -27.314329 -4.636557 -23.007824
v -29.261305 -4.747062 -23.278061
v -29.261305 -4.636557 -23.278061
v -29.261305 -4.747062 -23.007826
v -29.261305 -4.636557 -23.007826
v -29.531540 -4.747062 -23.278061
v -29.531540 -4.636557 -23.278061
v -29.531540 -4.747062 -23.007826
v -29.531540 -4.636557 -23.007826
v -28.217794 -4.747062 -23.278061
v -28.217794 -4.636557 -23.278061
v -28.217794 -4.747062 -23.007826
v -28.217794 -4.636557 -23.007826
v -28.488029 -4.747062 -23.278061
v -28.488029 -4.636557 -23.278061
v -28.488029 -4.747062 -23.007826
v -28.488029 -4.636557 -23.007826
vt 0.625000 0.000000
vt 0.375000 0.250000
vt 0.375000 0.000000
vt 0.625000 0.250000
vt 0.375000 0.500000
vt 0.625000 0.500000
vt 0.375000 0.750000
vt 0.625000 0.750000
vt 0.375000 1.000000
vt 0.125000 0.750000
vt 0.125000 0.500000
vt 0.875000 0.500000
vt 0.625000 0.000000
vt 0.375000 0.250000
vt 0.375000 0.000000
vt 0.625000 0.250000
vt 0.375000 0.500000
vt 0.625000 0.500000
vt 0.375000 0.750000
vt 0.625000 0.750000
vt 0.375000 1.000000
vt 0.125000 0.750000
vt 0.125000 0.500000
vt 0.875000 0.500000
vt 0.625000 0.000000
vt 0.375000 0.250000
vt 0.375000 0.000000
vt 0.625000 0.250000
vt 0.375000 0.500000
vt 0.625000 0.500000
vt 0.375000 0.750000
vt 0.625000 0.750000
vt 0.375000 1.000000
vt 0.125000 0.750000
vt 0.125000 0.500000
vt 0.875000 0.500000
vt 0.625000 1.000000
vt 0.875000 0.750000
vt 0.625000 1.000000
vt 0.875000 0.750000
vt 0.625000 1.000000
vt 0.875000 0.750000
vn 1.0000 0.0000 0.0000
vn 0.0000 0.0000 1.0000
vn -1.0000 0.0000 0.0000
vn 0.0000 0.0000 -1.0000
vn 0.0000 -1.0000 0.0000
vn 0.0000 1.0000 0.0000
usemtl Chimney_1
s off
f 26/43/7 27/44/7 25/45/7
f 28/46/8 31/47/8 27/44/8
f 32/48/9 29/49/9 31/47/9
f 30/50/10 25/51/10 29/49/10
f 31/47/11 25/52/11 27/53/11
f 28/54/12 30/50/12 32/48/12
f 34/55/7 35/56/7 33/57/7
f 36/58/8 39/59/8 35/56/8
f 40/60/9 37/61/9 39/59/9
f 38/62/10 33/63/10 37/61/10
f 39/59/11 33/64/11 35/65/11
f 36/66/12 38/62/12 40/60/12
f 42/67/7 43/68/7 41/69/7
f 44/70/8 47/71/8 43/68/8
f 48/72/9 45/73/9 47/71/9
f 46/74/10 41/75/10 45/73/10
f 47/71/11 41/76/11 43/77/11
f 44/78/12 46/74/12 48/72/12
f 26/43/7 28/46/7 27/44/7
f 28/46/8 32/48/8 31/47/8
f 32/48/9 30/50/9 29/49/9
f 30/50/10 26/79/10 25/51/10
f 31/47/11 29/49/11 25/52/11
f 28/54/12 26/80/12 30/50/12
f 34/55/7 36/58/7 35/56/7
f 36/58/8 40/60/8 39/59/8
f 40/60/9 38/62/9 37/61/9
f 38/62/10 34/81/10 33/63/10
f 39/59/11 37/61/11 33/64/11
f 36/66/12 34/82/12 38/62/12
f 42/67/7 44/70/7 43/68/7
f 44/70/8 48/72/8 47/71/8
f 48/72/9 46/74/9 45/73/9
f 46/74/10 42/83/10 41/75/10
f 47/71/11 45/73/11 41/76/11
f 44/78/12 42/84/12 46/74/12
o Cube.147_Cube.188
v -50.866867 -4.747062 -23.278061
v -50.866867 -4.636557 -23.278061
v -50.866867 -4.747062 -23.007824
v -50.866867 -4.636557 -23.007824
v -51.137100 -4.747062 -23.278061
v -51.137100 -4.636557 -23.278061
v -51.137100 -4.747062 -23.007824
v -51.137100 -4.636557 -23.007824
v -53.084076 -4.747062 -23.278061
v -53.084076 -4.636557 -23.278061
v -53.084076 -4.747062 -23.007826
v -53.084076 -4.636557 -23.007826
v -53.354313 -4.747062 -23.278061
v -53.354313 -4.636557 -23.278061
v -53.354313 -4.747062 -23.007826
v -53.354313 -4.636557 -23.007826
v -52.040569 -4.747062 -23.278061
v -52.040569 -4.636557 -23.278061
v -52.040569 -4.747062 -23.007826
v -52.040569 -4.636557 -23.007826
v -52.310802 -4.747062 -23.278061
v -52.310802 -4.636557 -23.278061
v -52.310802 -4.747062 -23.007826
v -52.310802 -4.636557 -23.007826
vt 0.625000 0.000000
vt 0.375000 0.250000
vt 0.375000 0.000000
vt 0.625000 0.250000
vt 0.375000 0.500000
vt 0.625000 0.500000
vt 0.375000 0.750000
vt 0.625000 0.750000
vt 0.375000 1.000000
vt 0.125000 0.750000
vt 0.125000 0.500000
vt 0.875000 0.500000
vt 0.625000 0.000000
vt 0.375000 0.250000
vt 0.375000 0.000000
vt 0.625000 0.250000
vt 0.375000 0.500000
vt 0.625000 0.500000
vt 0.375000 0.750000
vt 0.625000 0.750000
vt 0.375000 1.000000
vt 0.125000 0.750000
vt 0.125000 0.500000
vt 0.875000 0.500000
vt 0.625000 0.000000
vt 0.375000 0.250000
vt 0.375000 0.000000
vt 0.625000 0.250000
vt 0.375000 0.500000
vt 0.625000 0.500000
vt 0.375000 0.750000
vt 0.625000 0.750000
vt 0.375000 1.000000
vt 0.125000 0.750000
vt 0.125000 0.500000
vt 0.875000 0.500000
vt 0.625000 1.000000
vt 0.875000 0.750000
vt 0.625000 1.000000
vt 0.875000 0.750000
vt 0.625000 1.000000
vt 0.875000 0.750000
vn 1.0000 0.0000 0.0000
vn 0.0000 0.0000 1.0000
vn -1.0000 0.0000 0.0000
vn 0.0000 0.0000 -1.0000
vn 0.0000 -1.0000 0.0000
vn 0.0000 1.0000 0.0000
usemtl Chimney_1
s off
f 50/85/13 51/86/13 49/87/13
f 52/88/14 55/89/14 51/86/14
f 56/90/15 53/91/15 55/89/15
f 54/92/16 49/93/16 53/91/16
f 55/89/17 49/94/17 51/95/17
f 52/96/18 54/92/18 56/90/18
f 58/97/13 59/98/13 57/99/13
f 60/100/14 63/101/14 59/98/14
f 64/102/15 61/103/15 63/101/15
f 62/104/16 57/105/16 61/103/16
f 63/101/17 57/106/17 59/107/17
f 60/108/18 62/104/18 64/102/18
f 66/109/13 67/110/13 65/111/13
f 68/112/14 71/113/14 67/110/14
f 72/114/15 69/115/15 71/113/15
f 70/116/16 65/117/16 69/115/16
f 71/113/17 65/118/17 67/119/17
f 68/120/18 70/116/18 72/114/18
f 50/85/13 52/88/13 51/86/13
f 52/88/14 56/90/14 55/89/14
f 56/90/15 54/92/15 53/91/15
f 54/92/16 50/121/16 49/93/16
f 55/89/17 53/91/17 49/94/17
f 52/96/18 50/122/18 54/92/18
f 58/97/13 60/100/13 59/98/13
f 60/100/14 64/102/14 63/101/14
f 64/102/15 62/104/15 61/103/15
f 62/104/16 58/123/16 57/105/16
f 63/101/17 61/103/17 57/106/17
f 60/108/18 58/124/18 62/104/18
f 66/109/13 68/112/13 67/110/13
f 68/112/14 72/114/14 71/113/14
f 72/114/15 70/116/15 69/115/15
f 70/116/16 66/125/16 65/117/16
f 71/113/17 69/115/17 65/118/17
f 68/120/18 66/126/18 70/116/18
o Cube.110_Cube.151
v -53.039650 -4.747062 41.588383
v -53.039650 -4.636557 41.588383
v -53.039650 -4.747062 41.318150
v -53.039650 -4.636557 41.318150
v -52.769417 -4.747062 41.588383
v -52.769417 -4.636557 41.588383
v -52.769417 -4.747062 41.318150
v -52.769417 -4.636557 41.318150
v -50.822441 -4.747062 41.588383
v -50.822441 -4.636557 41.588383
v -50.822441 -4.747062 41.318150
v -50.822441 -4.636557 41.318150
v -50.552204 -4.747062 41.588383
v -50.552204 -4.636557 41.588383
v -50.552204 -4.747062 41.318150
v -50.552204 -4.636557 41.318150
v -51.865948 -4.747062 41.588383
v -51.865948 -4.636557 41.588383
v -51.865948 -4.747062 41.318150
v -51.865948 -4.636557 41.318150
v -51.595715 -4.747062 41.588383
v -51.595715 -4.636557 41.588383
v -51.595715 -4.747062 41.318150
v -51.595715 -4.636557 41.318150
vt 0.625000 0.000000
vt 0.375000 0.250000
vt 0.375000 0.000000
vt 0.625000 0.250000
vt 0.375000 0.500000
vt 0.625000 0.500000
vt 0.375000 0.750000
vt 0.625000 0.750000
vt 0.375000 1.000000
vt 0.125000 0.750000
vt 0.125000 0.500000
vt 0.875000 0.500000
vt 0.625000 0.000000
vt 0.375000 0.250000
vt 0.375000 0.000000
vt 0.625000 0.250000
vt 0.375000 0.500000
vt 0.625000 0.500000
vt 0.375000 0.750000
vt 0.625000 0.750000
vt 0.375000 1.000000
vt 0.125000 0.750000
vt 0.125000 0.500000
vt 0.875000 0.500000
vt 0.625000 0.000000
vt 0.375000 0.250000
vt 0.375000 0.000000
vt 0.625000 0.250000
vt 0.375000 0.500000
vt 0.625000 0.500000
vt 0.375000 0.750000
vt 0.625000 0.750000
vt 0.375000 1.000000
vt 0.125000 0.750000
vt 0.125000 0.500000
vt 0.875000 0.500000
vt 0.625000 1.000000
vt 0.875000 0.750000
vt 0.625000 1.000000
vt 0.875000 0.750000
vt 0.625000 1.000000
vt 0.875000 0.750000
vn -1.0000 0.0000 0.0000
vn 0.0000 0.0000 -1.0000
vn 1.0000 0.0000 0.0000
vn 0.0000 0.0000 1.0000
vn 0.0000 -1.0000 0.0000
vn 0.0000 1.0000 0.0000
usemtl Chimney_1
s off
f 74/127/19 75/128/19 73/129/19
f 76/130/20 79/131/20 75/128/20
f 80/132/21 77/133/21 79/131/21
f 78/134/22 73/135/22 77/133/22
f 79/131/23 73/136/23 75/137/23
f 76/138/24 78/134/24 80/132/24
f 82/139/19 83/140/19 81/141/19
f 84/142/20 87/143/20 83/140/20
f 88/144/21 85/145/21 87/143/21
f 86/146/22 81/147/22 85/145/22
f 87/143/23 81/148/23 83/149/23
f 84/150/24 86/146/24 88/144/24
f 90/151/19 91/152/19 89/153/19
f 92/154/20 95/155/20 91/152/20
f 96/156/21 93/157/21 95/155/21
f 94/158/22 89/159/22 93/157/22
f 95/155/23 89/160/23 91/161/23
f 92/162/24 94/158/24 96/156/24
f 74/127/19 76/130/19 75/128/19
f 76/130/20 80/132/20 79/131/20
f 80/132/21 78/134/21 77/133/21
f 78/134/22 74/163/22 73/135/22
f 79/131/23 77/133/23 73/136/23
f 76/138/24 74/164/24 78/134/24
f 82/139/19 84/142/19 83/140/19
f 84/142/20 88/144/20 87/143/20
f 88/144/21 86/146/21 85/145/21
f 86/146/22 82/165/22 81/147/22
f 87/143/23 85/145/23 81/148/23
f 84/150/24 82/166/24 86/146/24
f 90/151/19 92/154/19 91/152/19
f 92/154/20 96/156/20 95/155/20
f 96/156/21 94/158/21 93/157/21
f 94/158/22 90/167/22 89/159/22
f 95/155/23 93/157/23 89/160/23
f 92/162/24 90/168/24 94/158/24
o Cube.074_Cube.077
v -5.599976 -4.747062 41.588383
v -5.599976 -4.636557 41.588383
v -5.599976 -4.747062 41.318150
v -5.599976 -4.636557 41.318150
v -5.329741 -4.747062 41.588383
v -5.329741 -4.636557 41.588383
v -5.329741 -4.747062 41.318150
v -5.329741 -4.636557 41.318150
v -3.382765 -4.747062 41.588383
v -3.382765 -4.636557 41.588383
v -3.382765 -4.747062 41.318150
v -3.382765 -4.636557 41.318150
v -3.112529 -4.747062 41.588383
v -3.112529 -4.636557 41.588383
v -3.112529 -4.747062 41.318150
v -3.112529 -4.636557 41.318150
v -4.426274 -4.747062 41.588383
v -4.426274 -4.636557 41.588383
v -4.426274 -4.747062 41.318150
v -4.426274 -4.636557 41.318150
v -4.156038 -4.747062 41.588383
v -4.156038 -4.636557 41.588383
v -4.156038 -4.747062 41.318150
v -4.156038 -4.636557 41.318150
vt 0.625000 0.000000
vt 0.375000 0.250000
vt 0.375000 0.000000
vt 0.625000 0.250000
vt 0.375000 0.500000
vt 0.625000 0.500000
vt 0.375000 0.750000
vt 0.625000 0.750000
vt 0.375000 1.000000
vt 0.125000 0.750000
vt 0.125000 0.500000
vt 0.875000 0.500000
vt 0.625000 0.000000
vt 0.375000 0.250000
vt 0.375000 0.000000
vt 0.625000 0.250000
vt 0.375000 0.500000
vt 0.625000 0.500000
vt 0.375000 0.750000
vt 0.625000 0.750000
vt 0.375000 1.000000
vt 0.125000 0.750000
vt 0.125000 0.500000
vt 0.875000 0.500000
vt 0.625000 0.000000
vt 0.375000 0.250000
vt 0.375000 0.000000
vt 0.625000 0.250000
vt 0.375000 0.500000
vt 0.625000 0.500000
vt 0.375000 0.750000
vt 0.625000 0.750000
vt 0.375000 1.000000
vt 0.125000 0.750000
vt 0.125000 0.500000
vt 0.875000 0.500000
vt 0.625000 1.000000
vt 0.875000 0.750000
vt 0.625000 1.000000
vt 0.875000 0.750000
vt 0.625000 1.000000
vt 0.875000 0.750000
vn -1.0000 0.0000 0.0000
vn 0.0000 0.0000 -1.0000
vn 1.0000 0.0000 0.0000
vn 0.0000 0.0000 1.0000
vn 0.0000 -1.0000 0.0000
vn 0.0000 1.0000 0.0000
usemtl Chimney_1
s off
f 98/169/25 99/170/25 97/171/25
f 100/172/26 103/173/26 99/170/26
f 104/174/27 101/175/27 103/173/27
f 102/176/28 97/177/28 101/175/28
f 103/173/29 97/178/29 99/179/29
f 100/180/30 102/176/30 104/174/30
f 106/181/25 107/182/25 105/183/25
f 108/184/26 111/185/26 107/182/26
f 112/186/27 109/187/27 111/185/27
f 110/188/28 105/189/28 109/187/28
f 111/185/29 105/190/29 107/191/29
f 108/192/30 110/188/30 112/186/30
f 114/193/25 115/194/25 113/195/25
f 116/196/26 119/197/26 115/194/26
f 120/198/27 117/199/27 119/197/27
f 118/200/28 113/201/28 117/199/28
f 119/197/29 113/202/29 115/203/29
f 116/204/30 118/200/30 120/198/30
f 98/169/25 100/172/25 99/170/25
f 100/172/26 104/174/26 103/173/26
f 104/174/27 102/176/27 101/175/27
f 102/176/28 98/205/28 97/177/28
f 103/173/29 101/175/29 97/178/29
f 100/180/30 98/206/30 102/176/30
f 106/181/25 108/184/25 107/182/25
f 108/184/26 112/186/26 111/185/26
f 112/186/27 110/188/27 109/187/27
f 110/188/28 106/207/28 105/189/28
f 111/185/29 109/187/29 105/190/29
f 108/192/30 106/208/30 110/188/30
f 114/193/25 116/196/25 115/194/25
f 116/196/26 120/198/26 119/197/26
f 120/198/27 118/200/27 117/199/27
f 118/200/28 114/209/28 113/201/28
f 119/197/29 117/199/29 113/202/29
f 116/204/30 114/210/30 118/200/30
o Cube.071_Cube.114
v -29.422754 -4.747062 41.588383
v -29.422754 -4.636557 41.588383
v -29.422754 -4.747062 41.318150
v -29.422754 -4.636557 41.318150
v -29.152517 -4.747062 41.588383
v -29.152517 -4.636557 41.588383
v -29.152517 -4.747062 41.318150
v -29.152517 -4.636557 41.318150
v -27.205542 -4.747062 41.588383
v -27.205542 -4.636557 41.588383
v -27.205542 -4.747062 41.318150
v -27.205542 -4.636557 41.318150
v -26.935307 -4.747062 41.588383
v -26.935307 -4.636557 41.588383
v -26.935307 -4.747062 41.318150
v -26.935307 -4.636557 41.318150
v -28.249052 -4.747062 41.588383
v -28.249052 -4.636557 41.588383
v -28.249052 -4.747062 41.318150
v -28.249052 -4.636557 41.318150
v -27.978817 -4.747062 41.588383
v -27.978817 -4.636557 41.588383
v -27.978817 -4.747062 41.318150
v -27.978817 -4.636557 41.318150
vt 0.625000 0.000000
vt 0.375000 0.250000
vt 0.375000 0.000000
vt 0.625000 0.250000
vt 0.375000 0.500000
vt 0.625000 0.500000
vt 0.375000 0.750000
vt 0.625000 0.750000
vt 0.375000 1.000000
vt 0.125000 0.750000
vt 0.125000 0.500000
vt 0.875000 0.500000
vt 0.625000 0.000000
vt 0.375000 0.250000
vt 0.375000 0.000000
vt 0.625000 0.250000
vt 0.375000 0.500000
vt 0.625000 0.500000
vt 0.375000 0.750000
vt 0.625000 0.750000
vt 0.375000 1.000000
vt 0.125000 0.750000
vt 0.125000 0.500000
vt 0.875000 0.500000
vt 0.625000 0.000000
vt 0.375000 0.250000
vt 0.375000 0.000000
vt 0.625000 0.250000
vt 0.375000 0.500000
vt 0.625000 0.500000
vt 0.375000 0.750000
vt 0.625000 0.750000
vt 0.375000 1.000000
vt 0.125000 0.750000
vt 0.125000 0.500000
vt 0.875000 0.500000
vt 0.625000 1.000000
vt 0.875000 0.750000
vt 0.625000 1.000000
vt 0.875000 0.750000
vt 0.625000 1.000000
vt 0.875000 0.750000
vn -1.0000 0.0000 0.0000
vn 0.0000 0.0000 -1.0000
vn 1.0000 0.0000 0.0000
vn 0.0000 0.0000 1.0000
vn 0.0000 -1.0000 0.0000
vn 0.0000 1.0000 0.0000
usemtl Chimney_1
s off
f 122/211/31 123/212/31 121/213/31
f 124/214/32 127/215/32 123/212/32
f 128/216/33 125/217/33 127/215/33
f 126/218/34 121/219/34 125/217/34
f 127/215/35 121/220/35 123/221/35
f 124/222/36 126/218/36 128/216/36
f 130/223/31 131/224/31 129/225/31
f 132/226/32 135/227/32 131/224/32
f 136/228/33 133/229/33 135/227/33
f 134/230/34 129/231/34 133/229/34
f 135/227/35 129/232/35 131/233/35
f 132/234/36 134/230/36 136/228/36
f 138/235/31 139/236/31 137/237/31
f 140/238/32 143/239/32 139/236/32
f 144/240/33 141/241/33 143/239/33
f 142/242/34 137/243/34 141/241/34
f 143/239/35 137/244/35 139/245/35
f 140/246/36 142/242/36 144/240/36
f 122/211/31 124/214/31 123/212/31
f 124/214/32 128/216/32 127/215/32
f 128/216/33 126/218/33 125/217/33
f 126/218/34 122/247/34 121/219/34
f 127/215/35 125/217/35 121/220/35
f 124/222/36 122/248/36 126/218/36
f 130/223/31 132/226/31 131/224/31
f 132/226/32 136/228/32 135/227/32
f 136/228/33 134/230/33 133/229/33
f 134/230/34 130/249/34 129/231/34
f 135/227/35 133/229/35 129/232/35
f 132/234/36 130/250/36 134/230/36
f 138/235/31 140/238/31 139/236/31
f 140/238/32 144/240/32 143/239/32
f 144/240/33 142/242/33 141/241/33
f 142/242/34 138/251/34 137/243/34
f 143/239/35 141/241/35 137/244/35
f 140/246/36 138/252/36 142/242/36
