# Blender v3.2.0 OBJ File: ''
# www.blender.org
mtllib sidewalk.mtl
o Cube.186_Cube.227
v -16.559029 -15.714386 -8.756297
v -16.559177 -15.803168 -8.756148
v -16.559052 -15.746730 -28.163830
v -16.559200 -15.835513 -28.163681
v 7.307315 -15.754161 -8.756261
v 7.307166 -15.842944 -8.756112
v 7.307290 -15.786506 -28.163792
v 7.307141 -15.875288 -28.163643
vt 0.875000 0.500000
vt 0.625000 0.750000
vt 0.625000 0.500000
vt 0.375000 1.000000
vt 0.375000 0.750000
vt 0.625000 0.000000
vt 0.375000 0.250000
vt 0.375000 0.000000
vt 0.375000 0.500000
vt 0.125000 0.750000
vt 0.125000 0.500000
vt 0.625000 0.250000
vt 0.875000 0.750000
vt 0.625000 1.000000
vn 0.0017 1.0000 -0.0017
vn -0.0000 -0.0017 -1.0000
vn 1.0000 -0.0017 0.0000
vn -0.0017 -1.0000 0.0017
vn -1.0000 0.0017 -0.0000
vn 0.0000 0.0017 1.0000
usemtl Floor
s off
f 5/1/1 3/2/1 1/3/1
f 3/2/2 8/4/2 4/5/2
f 7/6/3 6/7/3 8/8/3
f 2/9/4 8/10/4 6/11/4
f 1/3/5 4/5/5 2/9/5
f 5/12/6 2/9/6 6/7/6
f 5/1/1 7/13/1 3/2/1
f 3/2/2 7/14/2 8/4/2
f 7/6/3 5/12/3 6/7/3
f 2/9/4 4/5/4 8/10/4
f 1/3/5 3/2/5 4/5/5
f 5/12/6 1/3/6 2/9/6
o Cube.149_Cube.190
v -40.175926 -15.714386 -8.756297
v -40.176071 -15.803168 -8.756148
v -40.175949 -15.746730 -28.163830
v -40.176098 -15.835513 -28.163681
v -16.309582 -15.754161 -8.756261
v -16.309731 -15.842944 -8.756112
v -16.309607 -15.786506 -28.163792
v -16.309755 -15.875288 -28.163643
vt 0.875000 0.500000
vt 0.625000 0.750000
vt 0.625000 0.500000
vt 0.375000 1.000000
vt 0.375000 0.750000
vt 0.625000 0.000000
vt 0.375000 0.250000
vt 0.375000 0.000000
vt 0.375000 0.500000
vt 0.125000 0.750000
vt 0.125000 0.500000
vt 0.625000 0.250000
vt 0.875000 0.750000
vt 0.625000 1.000000
vn 0.0017 1.0000 -0.0017
vn -0.0000 -0.0017 -1.0000
vn 1.0000 -0.0016 0.0000
vn -0.0017 -1.0000 0.0017
vn -1.0000 0.0017 -0.0000
vn 0.0000 0.0017 1.0000
vn 1.0000 -0.0017 0.0000
usemtl Floor
s off
f 13/15/7 11/16/7 9/17/7
f 11/16/8 16/18/8 12/19/8
f 15/20/9 14/21/9 16/22/9
f 10/23/10 16/24/10 14/25/10
f 9/17/11 12/19/11 10/23/11
f 13/26/12 10/23/12 14/21/12
f 13/15/7 15/27/7 11/16/7
f 11/16/8 15/28/8 16/18/8
f 15/20/13 13/26/13 14/21/13
f 10/23/10 12/19/10 16/24/10
f 9/17/11 11/16/11 12/19/11
f 13/26/12 9/17/12 10/23/12
o Cube.112_Cube.153
v -63.998703 -15.714386 -8.756301
v -63.998848 -15.803168 -8.756152
v -63.998726 -15.746730 -28.163834
v -63.998875 -15.835513 -28.163685
v -40.132359 -15.754161 -8.756265
v -40.132507 -15.842944 -8.756116
v -40.132385 -15.786506 -28.163795
v -40.132530 -15.875288 -28.163647
vt 0.875000 0.500000
vt 0.625000 0.750000
vt 0.625000 0.500000
vt 0.375000 1.000000
vt 0.375000 0.750000
vt 0.625000 0.000000
vt 0.375000 0.250000
vt 0.375000 0.000000
vt 0.375000 0.500000
vt 0.125000 0.750000
vt 0.125000 0.500000
vt 0.625000 0.250000
vt 0.875000 0.750000
vt 0.625000 1.000000
vn 0.0017 1.0000 -0.0017
vn -0.0000 -0.0017 -1.0000
vn 1.0000 -0.0016 0.0000
vn -0.0017 -1.0000 0.0017
vn -1.0000 0.0017 -0.0000
vn 0.0000 0.0017 1.0000
vn 1.0000 -0.0017 0.0000
vn -1.0000 0.0016 -0.0000
usemtl Floor
s off
f 21/29/14 19/30/14 17/31/14
f 19/30/15 24/32/15 20/33/15
f 23/34/16 22/35/16 24/36/16
f 18/37/17 24/38/17 22/39/17
f 17/31/18 20/33/18 18/37/18
f 21/40/19 18/37/19 22/35/19
f 21/29/14 23/41/14 19/30/14
f 19/30/15 23/42/15 24/32/15
f 23/34/20 21/40/20 22/35/20
f 18/37/17 20/33/17 24/38/17
f 17/31/21 19/30/21 20/33/21
f 21/40/19 17/31/19 18/37/19
o Cube.075_Cube.116
v -39.907822 -15.714386 27.066616
v -39.907673 -15.803168 27.066467
v -39.907795 -15.746730 46.474148
v -39.907646 -15.835513 46.473999
v -63.774162 -15.754161 27.066582
v -63.774014 -15.842944 27.066433
v -63.774136 -15.786506 46.474113
v -63.773987 -15.875288 46.473965
vt 0.875000 0.500000
vt 0.625000 0.750000
vt 0.625000 0.500000
vt 0.375000 1.000000
vt 0.375000 0.750000
vt 0.625000 0.000000
vt 0.375000 0.250000
vt 0.375000 0.000000
vt 0.375000 0.500000
vt 0.125000 0.750000
vt 0.125000 0.500000
vt 0.625000 0.250000
vt 0.875000 0.750000
vt 0.625000 1.000000
vn -0.0017 1.0000 0.0017
vn 0.0000 -0.0017 1.0000
vn -1.0000 -0.0017 -0.0000
vn 0.0017 -1.0000 -0.0017
vn 1.0000 0.0016 0.0000
vn -0.0000 0.0017 -1.0000
vn -1.0000 -0.0015 -0.0000
usemtl Floor
s off
f 29/43/22 27/44/22 25/45/22
f 27/44/23 32/46/23 28/47/23
f 31/48/24 30/49/24 32/50/24
f 26/51/25 32/52/25 30/53/25
f 25/45/26 28/47/26 26/51/26
f 29/54/27 26/51/27 30/49/27
f 29/43/22 31/55/22 27/44/22
f 27/44/23 31/56/23 32/46/23
f 31/48/28 29/54/28 30/49/28
f 26/51/25 28/47/25 32/52/25
f 25/45/26 27/44/26 28/47/26
f 29/54/27 25/45/27 26/51/27
o Cube.007_Cube.079
v -16.290928 -15.714386 27.066616
v -16.290779 -15.803168 27.066467
v -16.290901 -15.746730 46.474148
v -16.290752 -15.835513 46.473999
v -40.157269 -15.754161 27.066582
v -40.157120 -15.842944 27.066433
v -40.157242 -15.786506 46.474113
v -40.157093 -15.875288 46.473965
vt 0.875000 0.500000
vt 0.625000 0.750000
vt 0.625000 0.500000
vt 0.375000 1.000000
vt 0.375000 0.750000
vt 0.625000 0.000000
vt 0.375000 0.250000
vt 0.375000 0.000000
vt 0.375000 0.500000
vt 0.125000 0.750000
vt 0.125000 0.500000
vt 0.625000 0.250000
vt 0.875000 0.750000
vt 0.625000 1.000000
vn -0.0017 1.0000 0.0017
vn 0.0000 -0.0017 1.0000
vn -1.0000 -0.0017 -0.0000
vn 0.0017 -1.0000 -0.0017
vn 1.0000 0.0017 0.0000
vn -0.0000 0.0017 -1.0000
vn -1.0000 -0.0018 -0.0000
usemtl Floor
s off
f 37/57/29 35/58/29 33/59/29
f 35/58/30 40/60/30 36/61/30
f 39/62/31 38/63/31 40/64/31
f 34/65/32 40/66/32 38/67/32
f 33/59/33 36/61/33 34/65/33
f 37/68/34 34/65/34 38/63/34
f 37/57/29 39/69/29 35/58/29
f 35/58/30 39/70/30 40/60/30
f 39/62/35 37/68/35 38/63/35
f 34/65/32 36/61/32 40/66/32
f 33/59/33 35/58/33 36/61/33
f 37/68/34 33/59/34 34/65/34
o Cube.003_Cube.004
v 7.531854 -15.714386 27.066616
v 7.532002 -15.803168 27.066467
v 7.531880 -15.746730 46.474148
v 7.532029 -15.835513 46.473999
v -16.334488 -15.754161 27.066582
v -16.334339 -15.842944 27.066433
v -16.334461 -15.786506 46.474113
v -16.334312 -15.875288 46.473965
vt 0.875000 0.500000
vt 0.625000 0.750000
vt 0.625000 0.500000
vt 0.375000 1.000000
vt 0.375000 0.750000
vt 0.625000 0.000000
vt 0.375000 0.250000
vt 0.375000 0.000000
vt 0.375000 0.500000
vt 0.125000 0.750000
vt 0.125000 0.500000
vt 0.625000 0.250000
vt 0.875000 0.750000
vt 0.625000 1.000000
vn -0.0017 1.0000 0.0017
vn 0.0000 -0.0017 1.0000
vn -1.0000 -0.0017 -0.0000
vn 0.0017 -1.0000 -0.0017
vn 1.0000 0.0017 0.0000
vn -0.0000 0.0017 -1.0000
usemtl Floor
s off
f 45/71/36 43/72/36 41/73/36
f 43/72/37 48/74/37 44/75/37
f 47/76/38 46/77/38 48/78/38
f 42/79/39 48/80/39 46/81/39
f 41/73/40 44/75/40 42/79/40
f 45/82/41 42/79/41 46/77/41
f 45/71/36 47/83/36 43/72/36
f 43/72/37 47/84/37 48/74/37
f 47/76/38 45/82/38 46/77/38
f 42/79/39 44/75/39 48/80/39
f 41/73/40 43/72/40 44/75/40
f 45/82/41 41/73/41 42/79/41
