# Blender v3.2.0 OBJ File: 'MOBIL.blend'
# www.blender.org
mtllib wrecked_car_window.mtl
o Cube.225_Cube.004
v -17.060802 -14.654398 3.447736
v -16.886150 -13.905640 3.299588
v -14.418217 -14.677308 3.449172
v -14.780819 -13.916274 3.298596
v -14.442135 -14.651050 3.454477
v -15.749958 -14.651050 3.454477
v -15.737240 -13.903522 3.306573
v -14.798298 -13.903522 3.306573
v -15.922665 -14.651050 3.454477
v -17.052563 -14.651050 3.454477
v -16.878185 -13.903522 3.306573
v -15.909946 -13.903522 3.306573
v -17.060802 -14.654398 2.308015
v -16.886150 -13.905640 2.308015
v -14.418217 -14.677308 2.308015
v -14.780819 -13.916274 2.308015
v -17.060802 -14.654398 3.447736
v -16.886150 -13.905640 3.299588
v -14.442135 -14.651050 3.454477
v -15.737240 -13.903522 3.306573
v -14.798298 -13.903522 3.306573
v -15.922665 -14.651050 3.454477
v -17.052563 -14.651050 3.454477
v -16.878185 -13.903522 3.306573
v -15.909946 -13.903522 3.306573
v -17.060802 -14.654398 2.308015
v -16.886150 -13.905640 2.308015
v -14.418217 -14.677308 2.308015
v -14.780819 -13.916274 2.308015
v -14.780819 -13.916274 3.298596
v -14.418217 -14.677308 2.308015
v -17.060802 -14.654398 1.168294
v -16.886150 -13.905640 1.316442
v -14.418217 -14.677308 1.166858
v -14.780819 -13.916274 1.317434
v -14.442135 -14.651050 1.161552
v -15.749958 -14.651050 1.161552
v -15.737240 -13.903522 1.309457
v -14.798298 -13.903522 1.309457
v -15.922665 -14.651050 1.161552
v -17.052563 -14.651050 1.161552
v -16.878185 -13.903522 1.309457
v -15.909946 -13.903522 1.309457
v -17.060802 -14.654398 1.168294
v -16.886150 -13.905640 1.316442
v -14.442135 -14.651050 1.161552
v -15.737240 -13.903522 1.309457
v -14.798298 -13.903522 1.309457
v -15.922665 -14.651050 1.161552
v -17.052563 -14.651050 1.161552
v -16.878185 -13.903522 1.309457
v -15.909946 -13.903522 1.309457
v -14.780819 -13.916274 1.317434
vt 0.625000 0.916742
vt 0.625000 0.839312
vt 0.625000 0.915602
vt 0.625000 0.927540
vt 0.625000 0.994161
vt 0.625000 0.994650
vt 0.707302 0.625000
vt 0.707302 0.739867
vt 0.707302 0.740627
vt 0.625000 0.125000
vt 0.625000 0.010140
vt 0.625000 0.125000
vt 0.625000 0.916742
vt 0.625000 0.839312
vt 0.625000 0.838153
vt 0.625000 0.994161
vt 0.625000 0.927540
vt 0.625000 0.994650
vt 0.707302 0.739867
vt 0.707302 0.740627
vt 0.625000 0.010140
vt 0.625000 0.009399
vt 0.625000 0.838153
vt 0.625000 0.928026
vt 0.707302 0.625000
vt 0.625000 0.009399
vt 0.625000 0.915602
vt 0.625000 0.928026
vn 0.0000 0.1941 0.9810
vn 0.9028 0.4301 0.0000
vn -0.9739 0.2272 0.0000
vn 0.0000 0.1941 -0.9810
usemtl Material.015
s off
f 6/1/1 8/2/1 7/3/1
f 9/4/1 11/5/1 10/6/1
f 15/7/2 4/8/2 3/9/2
f 26/10/3 18/11/3 27/12/3
f 37/13/4 39/14/4 36/15/4
f 42/16/4 40/17/4 41/18/4
f 35/19/2 15/7/2 34/20/2
f 26/10/3 45/21/3 44/22/3
f 6/1/1 5/23/1 8/2/1
f 9/4/1 12/24/1 11/5/1
f 15/7/2 16/25/2 4/8/2
f 26/10/3 17/26/3 18/11/3
f 37/13/4 38/27/4 39/14/4
f 42/16/4 43/28/4 40/17/4
f 35/19/2 16/25/2 15/7/2
f 26/10/3 27/12/3 45/21/3
l 1 2
l 1 13
l 2 14
l 21 19
l 22 23
l 23 24
l 22 25
l 32 33
l 32 13
l 33 14
l 48 46
l 49 50
l 50 51
l 49 52
o Cube.224_Cube.005
v -21.313004 -14.654398 3.447736
v -21.138351 -13.905640 3.299588
v -18.670418 -14.677308 3.449172
v -19.033020 -13.916274 3.298596
v -18.694336 -14.651050 3.454477
v -20.002159 -14.651050 3.454477
v -19.989441 -13.903522 3.306573
v -19.050499 -13.903522 3.306573
v -20.174866 -14.651050 3.454477
v -21.304764 -14.651050 3.454477
v -21.130386 -13.903522 3.306573
v -20.162148 -13.903522 3.306573
v -21.313004 -14.654398 2.308015
v -21.138351 -13.905640 2.308015
v -18.670418 -14.677308 2.308015
v -19.033020 -13.916274 2.308015
v -21.313004 -14.654398 3.447736
v -21.138351 -13.905640 3.299588
v -18.670418 -14.677308 3.449172
v -20.174866 -14.651050 3.454477
v -21.304764 -14.651050 3.454477
v -21.130386 -13.903522 3.306573
v -21.313004 -14.654398 2.308015
v -21.138351 -13.905640 2.308015
v -18.670418 -14.677308 2.308015
v -19.033020 -13.916274 2.308015
v -18.670418 -14.677308 3.449172
v -18.670418 -14.677308 2.308015
v -19.033020 -13.916274 2.308015
v -21.313004 -14.654398 1.168294
v -21.138351 -13.905640 1.316442
v -18.670418 -14.677308 1.166858
v -19.033020 -13.916274 1.317434
v -18.694336 -14.651050 1.161552
v -20.002159 -14.651050 1.161552
v -19.989441 -13.903522 1.309457
v -19.050499 -13.903522 1.309457
v -20.174866 -14.651050 1.161552
v -21.304764 -14.651050 1.161552
v -21.130386 -13.903522 1.309457
v -20.162148 -13.903522 1.309457
v -21.313004 -14.654398 1.168294
v -21.138351 -13.905640 1.316442
v -18.670418 -14.677308 1.166858
v -20.174866 -14.651050 1.161552
v -21.304764 -14.651050 1.161552
v -21.130386 -13.903522 1.309457
v -18.670418 -14.677308 1.166858
vt 0.625000 0.916742
vt 0.625000 0.839312
vt 0.625000 0.915602
vt 0.625000 0.927540
vt 0.625000 0.994161
vt 0.625000 0.994650
vt 0.707302 0.625000
vt 0.707302 0.739867
vt 0.707302 0.740627
vt 0.625000 0.125000
vt 0.625000 0.010140
vt 0.625000 0.125000
vt 0.625000 0.916742
vt 0.625000 0.839312
vt 0.625000 0.838153
vt 0.625000 0.994161
vt 0.625000 0.927540
vt 0.625000 0.994650
vt 0.707302 0.739867
vt 0.707302 0.740627
vt 0.625000 0.010140
vt 0.625000 0.009399
vt 0.625000 0.838153
vt 0.625000 0.928026
vt 0.707302 0.625000
vt 0.625000 0.009399
vt 0.625000 0.915602
vt 0.625000 0.928026
vn 0.0000 0.1941 0.9810
vn 0.9028 0.4301 0.0000
vn -0.9739 0.2272 0.0000
vn 0.0000 0.1941 -0.9810
usemtl Material.015
s off
f 59/29/5 61/30/5 60/31/5
f 62/32/5 64/33/5 63/34/5
f 68/35/6 57/36/6 56/37/6
f 76/38/7 71/39/7 77/40/7
f 88/41/8 90/42/8 87/43/8
f 93/44/8 91/45/8 92/46/8
f 86/47/6 68/35/6 85/48/6
f 76/38/7 96/49/7 95/50/7
f 59/29/5 58/51/5 61/30/5
f 62/32/5 65/52/5 64/33/5
f 68/35/6 69/53/6 57/36/6
f 76/38/7 70/54/7 71/39/7
f 88/41/8 89/55/8 90/42/8
f 93/44/8 94/56/8 91/45/8
f 86/47/6 69/53/6 68/35/6
f 76/38/7 77/40/7 96/49/7
l 54 55
l 54 66
l 55 67
l 78 72
l 73 74
l 74 75
l 81 82
l 83 84
l 83 66
l 84 67
l 78 97
l 98 99
l 99 100
